<svg width="480" height="480" viewBox="0 0 480 480" fill="none" xmlns="http://www.w3.org/2000/svg">
<mask id="mask0_169_132" style="mask-type:alpha" maskUnits="userSpaceOnUse" x="0" y="0" width="480" height="480">
<rect width="480" height="480" fill="#D9D9D9"/>
</mask>
<g mask="url(#mask0_169_132)">
<path d="M257.191 137.425C230.909 136.508 186.845 146.723 186.845 146.723C186.845 146.723 36.2123 43.4071 22.5389 52.5123C8.86563 61.6174 69.3436 224.005 69.3436 224.005C69.3436 224.005 76.2786 350.803 92.3792 372.815C108.48 394.826 222.468 446.004 253.808 441.02C285.149 436.036 393.515 404.311 407.858 387.539C422.202 370.766 420.156 246.971 420.156 246.971C420.156 246.971 469.927 60.7495 457.82 51.9643C445.713 43.179 315.305 150.236 315.305 150.236C315.305 150.236 282.72 138.316 257.191 137.425Z" fill="#262626" stroke="#262626" stroke-width="15.3933"/>
<path d="M260.865 167L194.889 209.5L213.246 289.024L296.579 289.024L318.889 219.5L243.889 204.5L229.389 254.5L243.889 265L273.389 265L281.389 239.5L261.389 239.5" stroke="white" stroke-width="15" stroke-linecap="round"/>
<path d="M312.889 367.332L383.557 335.113" stroke="#FBFBFB" stroke-width="15" stroke-linecap="round"/>
<path d="M203.638 367.038L131.889 337.306" stroke="#FBFBFB" stroke-width="15" stroke-linecap="round"/>
</g>
</svg>
