<svg width="130" height="34" viewBox="0 0 130 34" fill="none" xmlns="http://www.w3.org/2000/svg">
<path d="M-1.06062e-07 33.895L-3.27423e-10 -1.91982e-05L1.72348 -1.91928e-05L1.72348 33.895L-1.06062e-07 33.895ZM8.61738 33.895L8.61738 -1.91713e-05L10.3409 -1.91659e-05L10.3409 33.895L8.61738 33.895ZM13.7878 33.895L13.7878 -1.91551e-05L17.2348 -1.91444e-05L17.2348 33.895L13.7878 33.895ZM18.9627 33.895L18.9627 -1.9139e-05L20.6862 -1.91336e-05L20.6862 33.895L18.9627 33.895ZM22.4097 33.895L22.4097 -1.91282e-05L25.8566 -1.91175e-05L25.8566 33.895L22.4097 33.895ZM32.7505 33.895L32.7505 -1.9096e-05L34.474 -1.90906e-05L34.474 33.895L32.7505 33.895ZM37.9255 33.895L37.9255 -1.90798e-05L39.6489 -1.90745e-05L39.6489 33.895L37.9255 33.895ZM41.3724 33.895L41.3724 -1.90691e-05L48.2663 -1.90476e-05L48.2663 33.895L41.3724 33.895ZM51.7133 33.895L51.7133 -1.90368e-05L53.4367 -1.90315e-05L53.4367 33.895L51.7133 33.895ZM56.8882 33.895L56.8882 -1.90207e-05L58.6117 -1.90153e-05L58.6117 33.895L56.8882 33.895ZM65.5056 33.895L65.5056 -1.89938e-05L67.229 -1.89884e-05L67.229 33.895L65.5056 33.895ZM70.676 33.895L70.676 -1.89777e-05L74.1229 -1.89669e-05L74.1229 33.895L70.676 33.895ZM75.8509 33.895L75.8509 -1.89615e-05L77.5744 -1.89562e-05L77.5744 33.895L75.8509 33.895ZM84.4683 33.895L84.4683 -1.89347e-05L87.9152 -1.89239e-05L87.9152 33.895L84.4683 33.895ZM89.6387 33.895L89.6387 -1.89185e-05L91.3622 -1.89132e-05L91.3622 33.895L89.6387 33.895ZM94.8136 33.895L94.8136 -1.89024e-05L96.5371 -1.8897e-05L96.5371 33.895L94.8136 33.895ZM98.2606 33.895L98.2606 -1.88916e-05L101.708 -1.88809e-05L101.708 33.895L98.2606 33.895ZM108.601 33.895L108.601 -1.88594e-05L110.325 -1.8854e-05L110.325 33.895L108.601 33.895ZM113.776 33.895L113.776 -1.88432e-05L115.5 -1.88379e-05L115.5 33.895L113.776 33.895ZM122.394 33.895L122.394 -1.88163e-05L125.841 -1.88056e-05L125.841 33.895L122.394 33.895ZM127.564 33.895L127.564 -1.88002e-05L129.288 -1.87948e-05L129.288 33.895L127.564 33.895Z" fill="#262626"/>
</svg>
