<svg width="123" height="33" viewBox="0 0 123 33" fill="none" xmlns="http://www.w3.org/2000/svg">
<path d="M0 32.169L0 -1.36455e-05H1.63571L1.63571 32.169H0ZM8.17857 32.169V-1.36455e-05H9.81429V32.169H8.17857ZM13.0857 32.169V-1.36455e-05H16.3571V32.169H13.0857ZM17.9971 32.169V-1.36455e-05H19.6328V32.169H17.9971ZM21.2685 32.169V-1.36455e-05L24.54 -1.36455e-05V32.169H21.2685ZM31.0828 32.169V-1.36455e-05H32.7185V32.169H31.0828ZM35.9942 32.169V-1.36455e-05H37.63V32.169H35.9942ZM39.2657 32.169V-1.36455e-05L45.8085 -1.36455e-05V32.169H39.2657ZM49.08 32.169V-1.36455e-05H50.7157V32.169H49.08ZM53.9914 32.169V-1.36455e-05H55.6271V32.169H53.9914ZM62.1699 32.169V-1.36455e-05H63.8056V32.169H62.1699ZM67.0771 32.169V-1.36455e-05H70.3485V32.169H67.0771ZM71.9885 32.169V-1.36455e-05L73.6242 -1.36455e-05V32.169H71.9885ZM80.167 32.169V-1.36455e-05H83.4385V32.169H80.167ZM85.0742 32.169V-1.36455e-05H86.7099V32.169H85.0742ZM89.9856 32.169V-1.36455e-05H91.6213V32.169H89.9856ZM93.257 32.169V-1.36455e-05H96.5284V32.169H93.257ZM103.071 32.169V-1.36455e-05L104.707 -1.36455e-05V32.169H103.071ZM107.983 32.169V-1.36455e-05H109.618V32.169H107.983ZM116.161 32.169V-1.36455e-05H119.433V32.169H116.161ZM121.068 32.169V-1.36455e-05H122.704V32.169H121.068Z" fill="black"/>
</svg>
