<svg width="98" height="78" viewBox="0 0 98 78" fill="none" xmlns="http://www.w3.org/2000/svg">
<path d="M12.9322 27.8181L2.03261 67.4007C1.00221 71.1427 3.7744 74.8529 7.65497 74.9254L75.1693 76.1874C77.7695 76.236 80.0997 74.5893 80.9221 72.1221L94.7467 30.6485C96.0373 26.7765 93.1331 22.7848 89.0518 22.8213L18.6126 23.4502C15.956 23.4739 13.6375 25.2568 12.9322 27.8181Z" fill="#565656"/>
<path d="M5.94698 55.7523L12.9723 28.5451C13.6503 25.9195 16.0186 24.085 18.7303 24.085L92.3219 24.085C94.3741 24.0849 95.8205 26.0993 95.1646 28.0438L80.1907 72.4335C79.3609 74.8935 77.0312 76.5308 74.4356 76.4784L5.20361 75.0798" stroke="#ACACAC" stroke-width="2" stroke-linecap="round"/>
</svg>
