<svg width="98" height="94" viewBox="0 0 98 94" fill="none" xmlns="http://www.w3.org/2000/svg">
<path d="M12.9322 44.2517L2.03261 83.8344C1.00221 87.5763 3.7744 91.2865 7.65497 91.359L75.1693 92.621C77.7695 92.6696 80.0997 91.0229 80.9221 88.5557L94.7467 47.0821C96.0373 43.2101 93.1331 39.2185 89.0518 39.2549L18.6126 39.8838C15.956 39.9075 13.6375 41.6904 12.9322 44.2517Z" fill="#C7C2BB"/>
<path d="M5.94698 72.1859L12.9723 44.9788C13.6503 42.3531 16.0186 40.5187 18.7303 40.5187L92.3219 40.5186C94.3741 40.5186 95.8205 42.5329 95.1646 44.4775L80.1907 88.8671C79.3609 91.3271 77.0312 92.9644 74.4356 92.912L5.20361 91.5134" stroke="#FCFCFC" stroke-width="2" stroke-linecap="round"/>
</svg>
