<svg width="49" height="3" viewBox="0 0 49 3" fill="none" xmlns="http://www.w3.org/2000/svg">
<path d="M35.7703 0.0715698C35.8478 0.109777 35.912 0.159135 35.9625 0.207507L36.0797 0.338757L36.1547 0.44657C36.2723 0.375936 36.4417 0.306196 36.6563 0.357507C36.754 0.380992 36.8307 0.426707 36.8953 0.474695C36.965 0.435885 37.0404 0.394725 37.1297 0.376257L37.2141 0.357507L37.2985 0.343445C37.5196 0.297683 37.7178 0.350431 37.8703 0.451257L38.0063 0.568445L38.0766 0.638757L38.1328 0.699695C38.2856 0.634099 38.4844 0.599671 38.6906 0.695007C38.7003 0.699506 38.7048 0.713636 38.7141 0.718445C38.7356 0.700823 38.7506 0.673642 38.775 0.657507C38.8642 0.598627 38.9981 0.538592 39.1594 0.535632L39.3281 0.554382L39.4875 0.591882C39.7208 0.647017 39.852 0.80603 39.9375 0.938757L40.0031 0.905945C40.1274 0.837911 40.2879 0.785837 40.4625 0.798132L40.6406 0.830945L40.7203 0.85907L40.7953 0.882507C40.8844 0.910357 40.9658 0.947939 41.0344 0.995007L41.2078 1.15438L41.2781 1.22938L41.3485 1.30907C41.3675 1.32997 41.3831 1.33531 41.386 1.33719L41.4563 1.38876L41.5313 1.43563H41.536L41.5969 1.36063L41.6578 1.27157C41.7134 1.19828 41.8066 1.10797 41.9438 1.05126C42.0895 0.99118 42.2412 0.988567 42.3703 1.02313C42.4785 1.05235 42.5658 1.10588 42.6328 1.15907L42.7735 1.30438L42.7828 1.31376C42.8592 1.24676 42.9596 1.1853 43.0875 1.15438C43.1776 1.13272 43.2624 1.13031 43.3406 1.14032C43.4074 1.05323 43.4898 0.963264 43.6031 0.89657L43.6781 0.854382L43.7531 0.807507L43.9828 0.718445C44.1323 0.68947 44.2725 0.719801 44.3906 0.76532C44.4998 0.68714 44.6413 0.621937 44.8219 0.63407C44.8558 0.636423 44.8849 0.655582 44.9156 0.662195C44.9341 0.63822 44.9491 0.610197 44.9719 0.587195C45.1087 0.449383 45.3202 0.351535 45.5672 0.39032L45.6563 0.404382L45.7406 0.418445C45.8414 0.434666 45.938 0.462519 46.0313 0.498132L46.0406 0.50282C46.0838 0.480244 46.1289 0.460841 46.1719 0.437195L46.3219 0.35282L46.5141 0.27782C46.7079 0.232766 46.8955 0.273826 47.0438 0.348132C47.0663 0.337294 47.0919 0.325428 47.1188 0.31532C47.1352 0.309181 47.2055 0.281018 47.2922 0.273132C47.3324 0.269573 47.4418 0.265113 47.5688 0.31532C47.6952 0.365364 47.8168 0.463689 47.8875 0.605945L47.9438 0.774695L48.0328 1.24813L47.5875 1.43563L47.4938 1.47782L47.4891 1.46376L47.4797 1.47313L47.4656 1.47782L47.4703 1.49657L47.4094 1.50594L47.4047 1.51063C47.15 1.64447 46.8895 1.60524 46.6969 1.51063C46.6605 1.5303 46.6256 1.55251 46.5891 1.57157L46.5141 1.61376L46.4391 1.65126C46.2167 1.76721 45.98 1.75946 45.7828 1.68407L45.7641 1.67469C45.7183 1.78381 45.6172 1.99317 45.3656 2.08251C45.1249 2.16709 44.9314 2.08575 44.8031 2.00751C44.7407 2.04055 44.6747 2.07924 44.5922 2.09188C44.4315 2.11646 44.298 2.06953 44.1938 2.02157L44.1656 2.07782C44.1092 2.17399 43.9959 2.32231 43.8 2.40126C43.649 2.4616 43.5066 2.44555 43.3828 2.41532C43.2748 2.51516 43.1393 2.61553 42.9516 2.64032L42.7922 2.65907C42.5794 2.68717 42.4059 2.61468 42.3 2.54657C42.2531 2.51637 42.2199 2.47299 42.1828 2.43876C42.1708 2.44619 42.1624 2.45988 42.15 2.46688L42.0563 2.51376L41.9672 2.56532C41.7984 2.66025 41.5637 2.72285 41.311 2.63563L41.2313 2.60751L41.1563 2.57938C41.0521 2.54328 40.9541 2.49323 40.8656 2.43407L40.7906 2.38719L40.7156 2.33563C40.6203 2.27174 40.5363 2.19638 40.4625 2.11532L40.4063 2.04969L40.4016 2.05438C40.3434 2.08623 40.2864 2.12047 40.2281 2.15282L40.1391 2.19969L40.0453 2.25126C39.8592 2.35392 39.5938 2.3874 39.3516 2.23251C39.2602 2.17369 39.1928 2.09969 39.1453 2.03094C39.1372 2.03796 39.1352 2.05219 39.1266 2.05907C39.0587 2.11311 38.9415 2.1899 38.7797 2.20907C38.4863 2.24296 38.3077 2.07845 38.2031 1.95126C38.0395 1.97724 37.8613 1.9595 37.6922 1.85282L37.5422 1.75907C37.4818 1.72075 37.4305 1.6692 37.3781 1.62313L37.3031 1.70282C37.2303 1.77725 37.0172 1.96537 36.6985 1.91844C36.5466 1.8959 36.4338 1.82866 36.3516 1.75438C36.3297 1.76178 36.3097 1.77698 36.286 1.78251C36.1014 1.82532 35.91 1.79178 35.7516 1.69344L35.6016 1.59969C35.5066 1.54037 35.4315 1.46281 35.3672 1.38876C35.2471 1.49916 35.0797 1.59228 34.8656 1.60438L34.8281 1.65594C34.7131 1.80259 34.4905 1.99223 34.1625 1.97001L34.0781 1.96532L33.9985 1.96063C33.8179 1.94831 33.6782 1.86783 33.5719 1.78719C33.4866 1.83325 33.3861 1.87002 33.2719 1.88094L33.1922 1.89032L33.1125 1.89501C32.9075 1.91462 32.7277 1.85432 32.5875 1.77313L32.5594 1.75438C32.4436 1.7891 32.3339 1.79285 32.2313 1.77782C32.1365 1.93021 31.9598 2.15964 31.6219 2.16219H31.4578C31.3047 2.163 31.1765 2.11839 31.0735 2.05907C31.0514 2.07442 31.0331 2.09706 31.0078 2.11063C30.8576 2.19088 30.6919 2.19591 30.5344 2.16219C30.4159 2.25912 30.2485 2.34385 30.0375 2.32626C29.8827 2.31293 29.7627 2.24756 29.6766 2.18563C29.5988 2.21474 29.5132 2.23363 29.4188 2.23251C29.3324 2.23145 29.2532 2.21927 29.1844 2.19501L28.9969 2.10126C28.8767 2.13701 28.7625 2.13906 28.6547 2.12001C28.5945 2.19643 28.5098 2.28389 28.3828 2.34032C28.1379 2.44829 27.8991 2.39159 27.7406 2.29344C27.6209 2.33467 27.5052 2.33687 27.3938 2.32157C27.341 2.39623 27.2716 2.48688 27.1594 2.55126C26.9578 2.66612 26.7274 2.66913 26.536 2.58407L26.3672 2.50907C26.2982 2.47835 26.2362 2.43233 26.175 2.39188C26.1306 2.4202 26.0921 2.45802 26.0438 2.48094L25.9594 2.52313L25.875 2.56063C25.6941 2.64598 25.4869 2.6625 25.2844 2.59344C25.1353 2.69266 24.9314 2.77478 24.6891 2.72938L24.5297 2.70126C24.3355 2.66489 24.1812 2.56638 24.0703 2.46219L23.9953 2.39188L23.9203 2.31688C23.9117 2.30881 23.9047 2.30512 23.9016 2.30282L23.8688 2.28407L23.8406 2.29344H23.836L23.7516 2.34501L23.6672 2.40126C23.5183 2.49183 23.3207 2.55141 23.1 2.51844L23.0203 2.50907L22.9969 2.50438L22.9735 2.51376L22.8891 2.54188C22.7226 2.59666 22.5417 2.59052 22.3781 2.51844C22.2311 2.45308 22.1305 2.35002 22.0688 2.27001L21.9938 2.17157L21.9516 2.12001C21.8112 2.18799 21.6413 2.24176 21.4406 2.19032L21.4078 2.21376C21.2349 2.31918 20.9926 2.36304 20.7563 2.25126C20.6128 2.18336 20.5233 2.07603 20.4656 1.99344L20.3953 2.02157L20.3156 2.04501C20.1633 2.09223 19.997 2.08978 19.8422 2.03094C19.7648 2.00147 19.6998 1.96095 19.6453 1.91844L19.6172 1.95594C19.5484 2.03809 19.3336 2.25811 18.9938 2.21376C18.7841 2.18564 18.6501 2.06326 18.5672 1.96532C18.4945 1.98437 18.417 2.00097 18.3328 1.99813L18.2578 2.07313C18.1367 2.18452 17.9351 2.31937 17.6672 2.31219L17.5875 2.30751H17.5078C17.438 2.30564 17.3663 2.30081 17.2969 2.29344L17.1375 2.27469C16.8852 2.24794 16.7172 2.10104 16.6125 1.97938C16.4905 2.00078 16.3629 2.00943 16.2328 1.97001L16.2281 1.96532L16.2 1.98407C15.9895 2.09626 15.731 2.0966 15.5156 1.96063C15.4346 1.9092 15.3703 1.84724 15.3235 1.78719L15.225 1.62782C15.137 1.68373 15.0356 1.73501 14.9156 1.75907L14.836 1.77782L14.7516 1.79188C14.7207 1.79808 14.687 1.80896 14.6531 1.82001L14.5735 1.84813L14.4891 1.87157C14.2925 1.93572 14.084 1.92506 13.8938 1.83876L13.8141 1.80594L13.7578 1.77782H13.711L13.6313 1.77313C13.4896 1.76593 13.3598 1.72436 13.2422 1.66532C13.1249 1.71461 12.9966 1.74824 12.8578 1.74969H12.7781L12.6938 1.75438C12.5165 1.75589 12.377 1.68976 12.2672 1.61376C12.1737 1.66119 12.0568 1.69943 11.9156 1.68876C11.7549 1.67625 11.6339 1.61036 11.5453 1.53876C11.4819 1.56145 11.4145 1.58836 11.3344 1.59032C11.2377 1.59248 11.1516 1.57202 11.0766 1.54344C10.981 1.62694 10.8508 1.71973 10.6735 1.74501L10.6031 1.75438L10.5328 1.76844C10.5285 1.76908 10.5164 1.7707 10.4953 1.77782L10.4156 1.80594L10.336 1.82938C10.037 1.9319 9.7752 1.82403 9.61408 1.70282L9.52501 1.63719L9.50626 1.64188C9.4103 1.64778 9.32394 1.62233 9.24376 1.59969C9.18365 1.66821 9.10344 1.7437 8.99064 1.79188C8.73001 1.90283 8.48563 1.82458 8.33439 1.72157L8.24533 1.66063L8.2172 1.64188H8.16564L8.08595 1.66532L8.00626 1.68407C8.00576 1.68421 7.99865 1.68707 7.98751 1.69344L7.91251 1.73563L7.83283 1.78251C7.76812 1.81949 7.70281 1.85455 7.63595 1.88563L7.55626 1.92313L7.47657 1.95594C7.26535 2.05363 7.04708 2.03143 6.87657 1.94657C6.82028 1.91849 6.77338 1.88285 6.73126 1.84813C6.64088 1.97084 6.43034 2.19024 6.08439 2.13407C6.02718 2.12468 5.97646 2.10261 5.9297 2.08251C5.92418 2.08728 5.92139 2.09658 5.91564 2.10126C5.73911 2.24435 5.4907 2.30275 5.24532 2.20907L5.16095 2.17626L5.09064 2.19032C4.79884 2.25204 4.56143 2.13088 4.42032 2.01688L4.39689 1.99813C4.21672 2.0378 4.04283 2.02295 3.89064 1.95594L3.72189 1.88094C3.70484 1.87344 3.69353 1.87242 3.68907 1.87157L3.6047 1.85751L3.60001 1.85282V1.85751L3.52032 1.88563C3.4674 1.90524 3.4139 1.92718 3.36095 1.94657L3.3047 1.96532L3.27657 2.01219L3.20626 2.12001C3.10243 2.27679 2.83149 2.55882 2.41407 2.46219L2.33439 2.44344L2.25001 2.42469C2.11583 2.39363 2.00491 2.32755 1.91251 2.26063C1.83327 2.30011 1.74728 2.33536 1.65001 2.34969L1.57032 2.35907H1.55157L1.52814 2.38251L1.45314 2.44344C1.38315 2.49572 1.30863 2.54173 1.23282 2.58407L1.15782 2.62626L1.07814 2.67313C0.828489 2.81164 0.579794 2.75535 0.426575 2.67782C0.291174 2.6089 0.189256 2.50669 0.126575 2.43407L1.21929e-05 2.28876L0.36095 1.97001L0.356262 1.90438L0.300012 1.30907L0.39845 1.29969L0.707825 1.26688L0.825012 1.40751L0.88595 1.36532C1.00229 1.27842 1.14617 1.2121 1.31251 1.18719L1.38751 1.17313L1.41564 1.15438L1.49064 1.09344L1.72032 0.966882C1.80875 0.937687 1.908 0.92641 2.01564 0.938757C2.11352 0.950039 2.19886 0.97704 2.26876 1.01376L2.43751 1.13094C2.52068 1.03468 2.63304 0.935318 2.78907 0.87782L2.86876 0.845007L2.94845 0.816882C2.9996 0.798147 3.052 0.77958 3.10314 0.760632L3.18282 0.732507L3.25782 0.704382C3.33524 0.675697 3.41631 0.655017 3.49689 0.648132L3.73595 0.662195L3.82032 0.676257L3.90001 0.69032C4.00635 0.709483 4.10912 0.741993 4.2047 0.78407L4.2422 0.80282L4.25157 0.798132C4.5685 0.685442 4.84109 0.813083 4.99689 0.938757L5.04376 0.976257C5.09454 0.968125 5.14451 0.966113 5.19376 0.966882C5.21897 0.910303 5.26379 0.834787 5.3297 0.760632C5.4034 0.677807 5.53965 0.565752 5.7422 0.54032C5.93322 0.516819 6.08497 0.583799 6.18282 0.648132C6.19254 0.640993 6.20084 0.631545 6.21095 0.624695L6.36095 0.52157C6.55154 0.392422 6.79214 0.362797 7.00782 0.451257C7.15866 0.513148 7.25587 0.62053 7.3172 0.695007L7.3922 0.65282C7.48384 0.600356 7.58234 0.555169 7.68751 0.526257L7.7672 0.507507L7.84689 0.48407L8.17501 0.441882L8.25939 0.44657H8.33908C8.40965 0.447769 8.47385 0.467856 8.53595 0.48407C8.60031 0.406281 8.69189 0.319902 8.82658 0.268445C8.96627 0.215396 9.09805 0.21456 9.21095 0.24032L9.48751 0.366882L9.57189 0.432507V0.437195L9.59533 0.432507L9.91876 0.479382L10.1578 0.610632L10.1766 0.629382C10.2321 0.613206 10.2867 0.591744 10.3453 0.582507L10.3781 0.545007L10.4625 0.441882C10.528 0.363512 10.6739 0.214862 10.9078 0.174695C11.0733 0.146731 11.2124 0.191582 11.325 0.249695C11.4363 0.18812 11.5803 0.129737 11.761 0.160632C11.8662 0.17887 11.9534 0.22147 12.0235 0.268445C12.1041 0.231107 12.2002 0.201233 12.3141 0.20282C12.4613 0.205193 12.5795 0.255891 12.6703 0.31532L12.8625 0.493445L12.8813 0.516882L12.9469 0.488757L13.111 0.437195C13.2253 0.414865 13.3433 0.420849 13.4578 0.451257L13.6266 0.516882L13.7016 0.554382L13.7391 0.57782H13.7719L13.8516 0.582507C13.9183 0.5859 13.9858 0.595049 14.0485 0.610632L14.2313 0.676257L14.25 0.69032L14.2828 0.676257C14.3593 0.651358 14.4388 0.631056 14.5172 0.61532L14.5969 0.601257H14.6016L14.6625 0.554382L14.7469 0.479382C14.8525 0.388498 15.0144 0.288957 15.2156 0.273132L15.4266 0.287195L15.5063 0.305945L15.5906 0.324695C15.888 0.388385 16.0402 0.616462 16.1156 0.751257L16.4203 0.770007L16.4531 0.78407L16.5 0.760632C16.6624 0.691353 16.8554 0.678667 17.0391 0.751257C17.1208 0.783679 17.1904 0.826858 17.2453 0.873132L17.3719 1.01376L17.4328 1.09813C17.4671 1.10158 17.5015 1.10182 17.536 1.10282L17.6203 1.03251L17.8594 0.868445C17.9584 0.822793 18.0767 0.793937 18.211 0.798132L18.2485 0.80282L18.3469 0.737195L18.6375 0.61532C18.7511 0.596601 18.8778 0.606877 19.0078 0.662195C19.0598 0.684311 19.0943 0.726682 19.1344 0.755945C19.1941 0.718873 19.2558 0.675361 19.3313 0.65282L19.4156 0.629382L19.4953 0.605945C19.8217 0.508493 20.0827 0.655161 20.236 0.807507L20.311 0.774695L20.3906 0.737195C20.5893 0.649193 20.8195 0.65467 21.0141 0.76532C21.1165 0.823591 21.1817 0.907506 21.2344 0.976257C21.3227 0.959262 21.4167 0.958829 21.5156 0.976257L21.5438 0.957507L21.7266 0.84032C21.8009 0.807799 21.8894 0.787312 21.9891 0.78407C22.0933 0.780916 22.189 0.798576 22.2703 0.830945L22.4766 0.957507L22.5516 1.02313L22.6313 1.08876C22.7103 1.15606 22.7783 1.23392 22.8422 1.31376C22.8594 1.31119 22.8763 1.30601 22.8938 1.30438L23.1188 1.30907H23.1422L23.2125 1.27157C23.3116 1.21101 23.424 1.16195 23.5453 1.13094L23.625 1.10751L23.7094 1.08876L24.0094 1.06532C24.1076 1.07701 24.2021 1.10905 24.2906 1.15438L24.3703 1.19657L24.45 1.23407C24.5603 1.29085 24.6564 1.36582 24.7406 1.44501L24.7828 1.48719C24.9671 1.35612 25.2453 1.27426 25.5281 1.39344C25.5319 1.39167 25.5399 1.38944 25.5516 1.37938L25.6266 1.31844L25.7016 1.25282L25.9125 1.12626C25.9946 1.09361 26.0899 1.07143 26.1938 1.07469C26.2904 1.07798 26.3743 1.10491 26.4469 1.13563L26.6297 1.23876L26.6485 1.25282C26.7026 1.19006 26.7774 1.12801 26.8735 1.07938C26.9867 1.02208 27.1018 0.999059 27.211 1.00438L27.5156 1.09344C27.6529 1.04137 27.7864 1.0342 27.9094 1.05594C27.969 0.981594 28.0546 0.900173 28.1766 0.845007C28.2976 0.790689 28.4186 0.776519 28.5281 0.788757L28.8188 0.887195L28.8281 0.89657C29.0544 0.822016 29.2621 0.862674 29.4235 0.948132C29.5406 0.892402 29.6761 0.854569 29.8266 0.87782C29.9385 0.895377 30.0297 0.943999 30.1031 0.99032C30.1488 0.968414 30.1985 0.947008 30.2531 0.93407C30.325 0.917129 30.3961 0.911393 30.4641 0.91532C30.5423 0.807948 30.6995 0.641428 30.9656 0.620007C31.171 0.60412 31.3226 0.688369 31.425 0.76532C31.477 0.685833 31.551 0.589877 31.6688 0.52157C31.856 0.413335 32.0539 0.411763 32.2172 0.46532L32.3672 0.535632L32.3953 0.554382C32.6316 0.487882 32.8493 0.54345 33.0141 0.638757L33.0422 0.657507L33.0703 0.629382L33.3047 0.455945C33.4046 0.409595 33.5258 0.382909 33.6656 0.399695C33.9012 0.4282 34.05 0.571103 34.1203 0.648132C34.2398 0.531632 34.4116 0.417248 34.6547 0.418445L34.7016 0.37157C34.7874 0.28684 34.8872 0.205545 35.0063 0.14657L35.086 0.10907L35.161 0.0715698C35.3629 -0.0284732 35.5853 -0.0191113 35.7703 0.0715698ZM20.5969 1.65126L20.6531 1.78719L20.7328 1.74032L20.6766 1.60438L20.5969 1.65126ZM20.7328 1.74032L20.6531 1.78719L20.5969 1.65126L20.6766 1.60438L20.7328 1.74032ZM47.1891 0.910632L46.7625 0.99032C46.7811 1.08412 46.8239 1.1815 46.8985 1.26688C46.9723 1.35142 47.0571 1.40282 47.1281 1.43094C47.2195 1.46697 47.3014 1.4597 47.3531 1.45907L47.1891 0.910632ZM47.4422 1.35126L47.461 1.45438C47.4677 1.45301 47.4737 1.45113 47.4797 1.44969L47.4422 1.35126ZM17.2219 1.43094L17.311 1.36532L17.3297 1.19657L17.2406 1.26219L17.2219 1.43094ZM17.311 1.36532L17.2219 1.43094L17.2406 1.26219L17.3297 1.19657L17.311 1.36532Z" fill="#FBFBFB"/>
</svg>
