<svg width="25" height="26" viewBox="0 0 25 26" fill="none" xmlns="http://www.w3.org/2000/svg">
<path d="M14.4277 13.2712C14.3254 13.187 14.2547 12.997 14.1499 12.8823C13.9715 12.6867 13.8447 12.5354 13.731 12.3949L15.4678 12.2816C15.2929 12.4788 15.1358 12.6447 14.9128 12.9139C14.3552 13.5869 12.8989 15.7313 12.4463 15.396C12.4463 15.396 12.4463 15.396 12.4463 15.396C12.4419 15.3927 12.4375 15.3892 12.4333 15.3854C12.3525 15.3143 12.3895 15.0675 12.3115 14.969C12.2334 14.8705 11.5892 14.4236 11.74 14.146C11.9635 13.747 12.7728 12.9922 12.9097 12.7925C13.0032 12.656 13.0672 12.4499 13.183 12.2725C13.4913 11.7998 13.7185 11.5431 13.9067 11.1249L14.4986 10.3627L15.1287 11.0452C15.209 11.0988 15.2967 11.1519 15.3952 11.2054C15.4925 11.453 15.5899 11.7006 15.6873 11.9482C15.944 12.1461 16.1849 12.5891 16.3255 12.7241C16.4409 12.8348 16.564 12.8462 16.6824 12.9634C16.8155 13.0945 16.9522 13.3614 17.1977 13.5967C17.5999 13.9828 17.8201 13.908 18.0715 14.1299C18.3322 14.36 18.6244 14.8272 18.9849 15.0939C19.0067 15.1034 19.0284 15.1128 19.0502 15.1222L19.5989 15.7167L19.0307 16.241C19.0163 16.2744 19.0018 16.3078 18.9874 16.3412C19.0423 16.3497 19.0972 16.3582 19.152 16.3667L19.8457 15.7266L19.1759 15.0008C19.1774 14.9907 19.179 14.9807 19.1806 14.9706C19.1854 14.9746 19.1901 14.9787 19.1947 14.9827L19.8825 15.728L19.1702 16.3855C19.0309 16.5431 18.8913 16.537 18.7469 16.6738C18.572 16.8394 18.5543 16.998 18.4374 17.1102C18.3415 17.2021 18.1554 17.2685 18.0351 17.3917C17.8595 17.5711 17.9807 17.6177 17.8989 17.7274C17.8661 17.771 17.1945 18.5098 17.1548 18.5495C16.8505 18.8498 16.7118 18.7597 16.4568 18.9863C15.75 19.6154 15.1424 20.3832 14.5475 21.0261C14.2819 21.3132 13.9823 21.5895 13.6844 21.8414C13.7569 21.5023 13.5314 21.4791 13.3556 21.5614L12.8476 22.0303L12.3994 21.5447C12.3063 21.3458 12.0779 21.2105 12.0186 21.6423C11.7837 21.2669 11.445 21.167 11.181 20.8511C11.0103 20.6467 10.9469 20.4523 10.6818 20.1811C10.2109 19.7003 9.51657 19.3474 9.71281 18.8888C9.10573 18.3768 8.75037 17.7688 8.26064 17.8459C8.10129 17.7166 7.91252 17.1731 7.77743 16.9859C7.64957 16.809 6.57635 15.5405 6.39231 15.3412C6.20828 15.1418 5.88322 14.7957 5.69891 14.6561C5.61719 14.5939 5.50908 14.5722 5.40342 14.5388L4.90069 13.9941L5.3389 13.4442C5.36989 13.2441 5.4409 13.0461 5.89398 12.9757C6.22192 12.4788 6.36127 12.3188 6.74126 11.9136C6.81004 11.8402 6.87504 11.8755 6.91047 11.829C6.98335 11.7332 7.06437 11.5374 7.18922 11.3624C7.39456 11.0746 7.63902 11.0071 7.42827 10.8963C7.53797 10.687 7.64767 10.4778 7.75738 10.2685C7.84293 10.2309 7.92848 10.1932 8.01403 10.1556C8.05012 10.0266 8.08622 9.89752 8.12231 9.76847C8.3042 10.0906 8.67533 9.27139 8.34782 9.37996C8.67717 9.06301 9.00652 8.74607 9.33588 8.42913C9.6051 8.71306 9.97165 7.66677 9.75077 7.61035C9.7823 7.5694 9.81383 7.52845 9.84536 7.48749C10.2009 7.1895 10.3856 6.80797 10.7743 6.41072C10.9216 6.26016 11.0129 6.17586 11.0827 6.1278L11.4351 5.68553L11.9193 5.91045C12.0227 6.00299 12.0181 6.06239 12.0693 6.20517C12.1922 6.24784 12.3152 6.29051 12.4382 6.33318C13.2571 6.15984 12.8091 6.88409 14.027 7.00901C14.2457 7.43868 15.1515 7.65932 15.7466 7.81825C15.8158 7.83676 15.8407 7.78282 15.9345 7.80384C16.1635 7.85592 16.6723 8.16174 16.7306 7.97811C16.8951 8.11055 17.0596 8.243 17.2241 8.37544C17.3906 8.41025 17.5572 8.44506 17.7238 8.47988C17.747 8.42473 17.7702 8.36959 17.7933 8.31445C18.019 8.63561 18.5332 8.77499 18.7519 8.92381C18.7953 8.95358 18.7725 9.03366 18.9108 9.11872C19.0723 9.2185 19.403 9.33646 19.5979 9.44981C19.7143 9.40096 19.8307 9.3521 19.9471 9.30324C20.3339 9.41829 20.3662 9.69574 20.5742 9.80714C20.6117 9.8271 21.3265 10.1208 21.3667 10.1327C21.6952 10.2318 21.6891 10.0049 22.5745 10.4401C22.7321 10.5177 22.8337 10.6397 22.9779 10.7059C23.1539 10.7868 23.6088 10.9028 23.9127 10.9304L24.6576 11.2765L24.4173 12.0189C24.4215 12.1552 24.4396 12.2595 24.4778 12.2923C24.2018 12.5645 24.0144 13.4577 23.886 13.6989C23.847 13.7716 23.7279 13.755 23.6325 13.9859C23.5551 14.173 23.4977 14.6973 23.4092 14.9375C23.3149 15.1924 23.1916 15.2566 23.15 15.371C23.1109 15.4791 23.1577 15.6036 23.1125 15.7534C22.9699 16.2205 22.719 16.607 22.6062 16.9762C22.4427 17.51 22.5301 18.0507 22.4978 18.5286C22.4498 18.6352 22.3681 18.7297 22.3328 18.846C21.895 20.2844 21.3671 21.8969 20.8863 23.3272C20.7969 23.5934 20.6133 24.0062 20.4673 24.3865L20.308 24.8788L19.8209 24.8593C19.2151 24.8025 18.7018 24.8071 18.9745 25.1356C18.7296 25.2259 16.9646 24.9773 16.6282 24.9681C16.2919 24.959 16.0236 25.0512 15.7592 25.048C14.9613 25.0383 14.4007 24.9587 13.4281 25.0261C13.1769 25.0438 12.9062 25.1538 12.7577 25.1499C12.5788 25.1449 12.3882 25.0306 12.1565 25.0195C11.6043 24.9939 10.5741 25.0124 10.0444 24.984C9.94765 24.9785 9.91536 24.8805 9.77748 24.8476C9.24055 24.7192 8.6362 24.719 8.73767 25.032C8.0499 24.8433 7.40799 24.9932 6.76759 24.9919C6.49033 24.9912 6.16651 24.9858 5.81668 24.9786L5.0469 24.9477L4.85243 24.2504C4.46199 22.9487 3.97695 21.2652 3.60511 20.3979C3.31024 19.7101 3.1822 19.7689 2.97953 18.6861C2.93452 18.4458 2.89874 18.2037 2.84363 17.9124C2.71476 17.2294 2.77743 16.5479 2.32718 16.1341C2.18146 15.3762 1.9493 14.8079 2.03824 14.1859C1.95776 14.1401 1.87729 14.0944 1.79681 14.0487C1.76798 13.9591 1.73916 13.8695 1.71033 13.7799C1.75997 13.7342 1.80961 13.6885 1.85925 13.6427C1.6792 12.9929 1.19184 12.2471 1.02792 11.7006C0.835772 11.0606 0.474068 9.7033 0.210435 8.63917L1.7161e-05 7.88462L0.658812 7.54543C1.08554 7.34121 1.46251 7.1659 1.71454 7.05698C2.15842 6.86517 2.119 6.73842 2.48905 6.84178C2.57479 6.77396 2.66052 6.70615 2.74626 6.63833C2.77748 6.55465 2.80871 6.47097 2.83993 6.38729C3.3816 6.09005 4.06887 5.81989 4.58552 5.53786C5.52686 5.02379 6.8647 4.11266 7.86151 3.69114C8.11152 3.58558 8.46581 3.53045 8.69749 3.4029C9.03474 3.21736 9.02112 2.99651 9.44843 2.75985C10.1851 2.35231 11.6737 1.80793 12.3642 1.41213C12.5693 1.29469 12.6306 1.17647 12.7701 1.0915C13.3549 0.734529 13.8513 0.471465 14.3727 0.0567029C15.0834 -0.111079 15.1484 0.135892 15.4598 0.251443C15.6954 0.338331 16.3503 0.480492 16.4926 0.591416C16.5926 0.66935 16.4981 0.890944 16.6215 0.969464C15.9288 1.46249 15.5635 1.5331 14.8754 1.70245C13.7668 2.31347 12.6583 2.92449 11.5498 3.53552C11.4152 3.52919 11.2807 3.52285 11.1462 3.51652C11.1461 3.51639 11.146 3.51625 11.146 3.51612C10.6804 3.67755 10.5854 3.93397 10.3746 4.09508C8.36351 5.63215 3.90196 7.71421 1.44805 8.99669L1.79125 8.15952C1.79391 8.16883 1.79657 8.17812 1.79922 8.18738C1.96312 8.75986 2.61552 10.5859 2.62561 11.0098C2.62805 11.1196 2.53355 11.179 2.56174 11.2881C2.91493 12.2315 3.26812 13.175 3.62131 14.1185C4.06148 16.1455 4.8143 18.1507 5.44382 20.1367C5.82389 21.3357 6.20385 22.5317 6.58245 23.7255L5.84823 23.171C10.2084 23.1925 14.5372 23.2213 18.8432 23.3164C19.1581 23.3235 19.498 23.3235 19.8477 23.3218L18.9941 23.9461C19.2167 23.1364 19.4449 22.27 19.6922 21.571C19.8382 21.1578 20.0562 21.0325 20.0974 20.4446C20.1437 20.4522 20.1901 20.4597 20.2365 20.4673C20.3263 19.9703 20.3166 19.6327 20.4674 19.0905C20.5946 18.6339 20.947 17.4308 21.084 17.0348C21.1547 16.8292 21.215 16.9317 21.2725 16.7376C21.3704 16.4051 21.4672 15.661 21.6042 15.2027C21.7283 14.7875 22.0336 14.1164 22.1151 13.793C22.3003 13.0602 22.4608 12.2756 22.6551 11.4922L23.1758 12.6155C22.732 12.4459 22.2899 12.2648 21.8618 12.0614C21.5427 11.9096 21.1718 11.6242 21.0692 11.5827C20.8686 11.5022 20.7657 11.5769 20.6271 11.5316C19.9231 11.3016 18.9225 10.7218 18.2626 10.4275C16.1121 9.46872 13.8077 8.51321 11.6678 7.55544C11.5443 7.5002 11.4133 7.44192 11.2762 7.38116L12.3603 7.09949C11.4509 8.28334 10.1592 9.99681 9.34738 10.9405C9.15471 11.1644 9.10667 11.0291 8.95679 11.2262C8.79062 11.4447 8.76521 11.6122 8.69278 11.7183C8.24183 12.3795 7.28832 13.7499 6.68401 14.4672L6.61905 13.3649C6.68758 13.4434 6.74882 13.5163 6.80107 13.5824C6.90056 13.7083 6.91332 13.857 6.97999 13.9256C7.01361 13.9604 7.13577 13.9944 7.24603 14.0992C8.21976 15.0238 8.87229 15.7535 9.7696 16.7144C10.9015 17.926 12.204 19.2137 13.473 20.508L12.3189 20.4879C12.9901 19.8298 13.663 19.1808 14.328 18.5693C14.7523 18.1792 15.1659 18.0386 15.2229 17.9809C15.3482 17.8547 15.3431 17.6856 15.5807 17.4131C16.2297 16.6704 17.1899 15.8474 17.9422 15.1139L17.9231 16.2107C17.7629 16.0464 17.6069 15.892 17.457 15.753C17.0439 15.3697 16.3924 14.9239 15.9825 14.55C15.655 14.2514 14.9744 13.4568 14.788 13.3643C14.6748 13.3078 14.5391 13.3622 14.4277 13.2712ZM10.4763 19.8178C10.6868 19.7241 9.98217 19.2535 10.1143 19.5577C10.1441 19.6262 10.4217 19.8422 10.4763 19.8178ZM21.3932 20.6653C21.4547 20.6758 21.5161 20.6862 21.5775 20.6966C21.584 20.5851 21.5905 20.4736 21.5969 20.3621C21.5438 20.41 21.4907 20.4579 21.4376 20.5057C21.4228 20.5589 21.408 20.6121 21.3932 20.6653Z" fill="#FBFBFB"/>
</svg>
