<svg width="106" height="37" viewBox="0 0 106 37" fill="none" xmlns="http://www.w3.org/2000/svg">
<path d="M56.8782 25.8537L56.8782 33.6098C56.8782 35.0375 58.0358 36.1951 59.4635 36.1951L62.0489 36.1951C63.4767 36.1951 64.6343 35.0375 64.6343 33.6098L64.6343 31.6707L62.0489 31.6707L62.0489 33.6098L59.4635 33.6098L59.4635 25.8537L62.0489 25.8537L62.0489 27.7927L64.6343 27.7927L64.6343 25.8537C64.6343 24.4259 63.4767 23.2683 62.0489 23.2683L59.4635 23.2683C58.0358 23.2683 56.8782 24.4259 56.8782 25.8537Z" fill="black" fill-opacity="0.42"/>
<path d="M46.5364 25.8537L46.5364 33.6098C46.5364 35.0317 47.6998 36.1951 49.1217 36.1951L51.7071 36.1951C53.1291 36.1951 54.2925 35.0317 54.2925 33.6098L54.2925 31.0244C54.2925 29.6025 53.1291 28.439 51.7071 28.439L49.1217 28.439L49.1217 25.8537L54.2925 25.8537L54.2925 23.2683L49.1217 23.2683C47.6998 23.2683 46.5364 24.4317 46.5364 25.8537ZM51.7071 31.0244L51.7071 33.6098L49.1217 33.6098L49.1217 31.0244L51.7071 31.0244Z" fill="black" fill-opacity="0.42"/>
<path d="M25.8538 23.2683L23.2685 23.2683C21.8407 23.2683 20.6831 24.4259 20.6831 25.8537L20.6831 36.1951L23.2685 36.1951L23.2685 33.6098L25.8538 33.6098L25.8538 36.1951L28.4392 36.1951L28.4392 25.8537C28.4392 24.4259 27.2816 23.2683 25.8538 23.2683ZM25.8538 31.0244L23.2685 31.0244L23.2685 25.8537L25.8538 25.8537L25.8538 31.0244Z" fill="black" fill-opacity="0.42"/>
<path d="M18.0974 25.8537L18.0974 23.2683L12.9267 23.2683L10.3413 23.2683L10.3413 36.1951L18.0974 36.1951L18.0974 33.6098L12.9267 33.6098L12.9267 31.0244L16.8047 31.0244L16.8047 28.439L12.9267 28.439L12.9267 25.8537L18.0974 25.8537Z" fill="black" fill-opacity="0.42"/>
<path d="M7.10975 25.8537L7.75609 23.2683L2.58536 23.2683C1.1576 23.2683 6.95391e-10 24.4259 1.55308e-09 25.8537L3.10616e-09 28.439C3.96384e-09 29.8668 1.1576 31.0244 2.58536 31.0244L5.17073 31.0244L5.17073 33.6098L0.646341 33.6098L7.76539e-09 36.1951L5.17073 36.1951C6.5985 36.1951 7.75609 35.0375 7.75609 33.6098L7.75609 31.0244C7.75609 29.5966 6.5985 28.439 5.17073 28.439L2.58536 28.439L2.58536 25.8537L7.10975 25.8537Z" fill="black" fill-opacity="0.42"/>
<path d="M103.415 6.05701e-08L100.829 6.21232e-08C99.4073 6.29774e-08 98.2439 1.16341 98.2439 2.58536L98.2439 5.17073C98.2439 6.59268 99.4073 7.75609 100.829 7.75609L103.415 7.75609L103.415 10.3415L98.2439 10.3415L98.2439 12.9268L103.415 12.9268C104.837 12.9268 106 11.7634 106 10.3415L106 2.58536C106 1.16341 104.837 5.97159e-08 103.415 6.05701e-08ZM103.415 5.17073L100.829 5.17073L100.829 2.58536L103.415 2.58536L103.415 5.17073Z" fill="black" fill-opacity="0.42"/>
<path d="M87.9023 2.58536L93.0731 2.58536L87.9023 12.9268L90.4877 12.9268L95.6584 2.58536L95.6584 5.9017e-08L87.9023 6.36762e-08L87.9023 2.58536Z" fill="black" fill-opacity="0.42"/>
<path d="M72.3901 2.58536L74.9755 2.58536L74.9755 12.9268L77.5609 12.9268L77.5609 6.05701e-08L72.3901 6.36762e-08L72.3901 2.58536Z" fill="black" fill-opacity="0.42"/>
<path d="M80.1462 2.58536L82.7316 2.58536L82.7316 12.9268L85.317 12.9268L85.317 6.05701e-08L80.1462 6.36762e-08L80.1462 2.58536Z" fill="black" fill-opacity="0.42"/>
<path d="M59.4634 5.9017e-08L51.7073 6.36762e-08L51.7073 2.58536L54.2926 2.58536L54.2926 12.9268L56.878 12.9268L56.878 2.58536L59.4634 2.58536L59.4634 5.9017e-08Z" fill="black" fill-opacity="0.42"/>
<path d="M38.7805 23.2683L31.0244 23.2683L31.0244 25.8537L33.6098 25.8537L33.6098 36.1951L36.1951 36.1951L36.1951 25.8537L38.7805 25.8537L38.7805 23.2683Z" fill="black" fill-opacity="0.42"/>
<path d="M46.5365 6.05701e-08L46.5365 5.17073L43.9511 5.17073L43.9511 6.21231e-08L41.3657 6.36762e-08L41.3657 12.9268L43.9511 12.9268L43.9511 7.75609L46.5365 7.75609L46.5365 12.9268L49.1218 12.9268L49.1218 5.9017e-08L46.5365 6.05701e-08Z" fill="black" fill-opacity="0.42"/>
<path d="M33.6098 2.58536L38.7805 2.58536L38.7805 5.9017e-08L33.6098 6.21231e-08C32.182 6.29808e-08 31.0244 1.1576 31.0244 2.58536L31.0244 10.3415C31.0244 11.7692 32.182 12.9268 33.6098 12.9268L36.1951 12.9268C37.6229 12.9268 38.7805 11.7692 38.7805 10.3415L38.7805 5.17073L36.1951 5.17073L36.1951 10.3415L33.6098 10.3415L33.6098 2.58536Z" fill="black" fill-opacity="0.42"/>
<path d="M28.4392 2.58536L28.4392 5.9017e-08L20.6831 6.36762e-08L20.6831 2.58536L23.2685 2.58536L23.2685 10.3415L20.6831 10.3415L20.6831 12.9268L28.4392 12.9268L28.4392 10.3415L25.8538 10.3415L25.8538 2.58536L28.4392 2.58536Z" fill="black" fill-opacity="0.42"/>
<path d="M12.9267 10.3415L12.9267 6.21231e-08L10.3413 6.36762e-08L10.3413 12.9268L18.0974 12.9268L18.0974 10.3415L12.9267 10.3415Z" fill="black" fill-opacity="0.42"/>
<path d="M7.75609 2.58536L7.75609 5.9017e-08L0 6.36762e-08L7.76539e-09 12.9268L2.58536 12.9268L2.58536 7.75609L6.46341 7.75609L6.46341 5.17073L2.58536 5.17073L2.58536 2.58536L7.75609 2.58536Z" fill="black" fill-opacity="0.42"/>
</svg>
