<svg width="18" height="144" viewBox="0 0 18 144" fill="none" xmlns="http://www.w3.org/2000/svg">
<path d="M14.1784 143.108H4.61695V137.561H5.97013L5.97013 136.193H7.45714L7.45714 137.71H6.11883V141.606H8.66162V138.9H10.1338V141.606H14.1784V143.108ZM14.1784 134.99H4.61695V133.488H14.1784V134.99ZM14.1784 131.694H7.30844V130.192H14.1784L14.1784 131.694ZM6.11883 131.694H4.61695V130.192H6.11883V131.694ZM16.8699 127.335H15.5316V128.688H14.0446V127.186H15.3829V123.275H12.8401V127.335H11.4869V128.688H8.66162V127.335H7.30844L7.30844 123.126H8.66162V121.773H15.5316V123.126H16.8699V127.335ZM11.3382 127.186V123.275H8.79545V127.186H11.3382ZM14.1784 120.265H4.61695V118.763H8.66162V117.574H7.30844V114.719H8.66162V113.351H14.1784V114.867H8.79545V117.425H10.1338V118.763H14.1784V120.265ZM14.1784 109.456H12.8401V110.795H8.79545V112.148H7.30844L7.30844 110.795H4.61695V109.308H7.30844V105.233H8.79545V109.308H12.6914V105.382H11.3382L11.3382 103.88H12.8401L12.8401 105.233H14.1784V109.456ZM14.1784 93.7094H6.11883V97.6054H7.45714L7.45714 99.1073H5.97013L5.97013 97.7541H4.61695V93.5607H5.97013V92.1927H14.1784V93.7094ZM14.1784 87.7028H6.11883V88.8925H7.45714V90.3943H5.97013V89.0412H4.61695V87.5541H5.97013V86.1861H14.1784V87.7028ZM14.1784 78.9845H6.11883V82.8805H7.45714V84.3824H5.97013V83.0292H4.61695V78.8358H5.97013V77.4678H14.1784L14.1784 78.9845ZM14.1784 70.2716H11.4869V75.6694H8.66162V74.3162H7.30844V72.9779H5.97013L5.97013 71.6099H4.61695V68.7548H14.1784V70.2716ZM9.98506 74.1675V70.2716H6.11883V71.4612H7.45714L7.45714 72.8292H8.79545V74.1675H9.98506ZM14.1784 53.6956H12.8401V55.0487H11.3382V53.5468H12.6914L12.6914 49.6509H10.1338L10.1338 53.6956H8.79545V55.0487H5.97013V53.6956H4.61695V49.5022H5.97013V48.1341H7.45714V49.6509H6.11883V53.5468H8.66162L8.66162 49.5022H9.98506V48.1341H12.8401V49.5022H14.1784L14.1784 53.6956ZM14.1784 45.4328H12.8401V46.7859H8.66162V45.4328H7.30844V41.2394H8.66162V39.8713H10.1338V41.3881H8.79545V45.2841H9.98506V42.5777H11.4869V45.2841H12.6914V41.3881H11.3234V39.8713H12.8253V41.2394H14.1784V45.4328ZM14.1784 36.7198H12.8401V38.073H8.66162V36.7198H7.30844L7.30844 32.5264H8.66162V31.1584H12.6914V29.8052H14.1784V31.3071H12.8401V32.5264H14.1784V36.7198ZM12.6914 36.5711V32.6751H8.79545V36.5711H12.6914ZM14.1784 26.9589H12.8401V28.2973H8.79545V29.6504H7.30844V28.2973H4.61695V26.8102H7.30844V22.7358H8.79545L8.79545 26.8102H12.6914L12.6914 22.8845H11.3382V21.3826H12.8401V22.7358H14.1784L14.1784 26.9589ZM14.1784 15.2568H12.8401V16.61H5.97013V15.2568H4.61695V11.0635H5.97013V9.69542H7.45714V11.2122H6.11883V15.1081H8.66162V11.0635H9.98506V9.69542H12.8401V11.0635H14.1784V15.2568ZM12.6914 15.1081V11.2122H10.1338V15.1081H12.6914ZM14.1784 6.54387H12.8401V7.89705H5.97013L5.97013 6.54387H4.61695V2.35049H5.97013V0.982441H8.79545V2.4992H6.11883V6.39517H12.6914V2.4992H9.98506V0.982441H12.8401V2.35049H14.1784V6.54387Z" fill="black"/>
</svg>
