<svg width="97" height="35" viewBox="0 0 97 35" fill="none" xmlns="http://www.w3.org/2000/svg">
<path d="M-0.000102162 -6.67572e-06L7.17346 -6.67572e-06V1.43471L1.43461 1.43471L1.43461 4.30413L5.73875 4.30413L5.73875 5.73884L1.43461 5.73884L1.43461 11.4777H-0.000102162L-0.000102162 -6.67572e-06ZM10.0429 1.43471H11.4776L11.4776 10.043H10.0429L10.0429 1.43471ZM11.4776 10.043L14.347 10.043V11.4777H11.4776V10.043ZM18.6512 -6.67572e-06H20.0859V1.43471H18.6512V-6.67572e-06ZM17.2164 2.86942H20.0859L20.0859 10.043L21.5206 10.043V11.4777H17.2164V10.043H18.6512V4.30413H17.2164L17.2164 2.86942ZM25.8247 2.86942L31.5636 2.86942L31.5636 12.9124H30.1289V10.043L25.8247 10.043V8.60827L30.1289 8.60827V4.30413L25.8247 4.30413L25.8247 2.86942ZM30.1289 12.9124V14.3471H25.8247V12.9124H30.1289ZM25.8247 8.60827H24.39V4.30413H25.8247V8.60827ZM34.433 -6.67572e-06H35.8677V4.30413H37.3024V5.73884H35.8677V11.4777H34.433V-6.67572e-06ZM37.3024 4.30413V2.86942L40.1718 2.86942V4.30413L37.3024 4.30413ZM40.1718 4.30413H41.6066V11.4777H40.1718V4.30413ZM44.476 -6.67572e-06L45.9107 -6.67572e-06V2.86942L50.2148 2.86942V4.30413L45.9107 4.30413V10.043H44.476V-6.67572e-06ZM45.9107 10.043L50.2148 10.043V11.4777H45.9107V10.043ZM58.8231 -6.67572e-06L65.9967 -6.67572e-06V4.30413L64.562 4.30413V1.43471L60.2578 1.43471V2.86942H58.8231V-6.67572e-06ZM64.562 4.30413V5.73884H63.1272V4.30413H64.562ZM63.1272 5.73884V7.17355H61.6925V5.73884H63.1272ZM61.6925 7.17355V11.4777L60.2578 11.4777V7.17355H61.6925ZM71.7355 -6.67572e-06H73.1702V10.043L76.0396 10.043V11.4777H68.8661V10.043H71.7355V2.86942H68.8661V1.43471L71.7355 1.43471V-6.67572e-06ZM78.9091 -6.67572e-06L86.0826 -6.67572e-06V4.30413H84.6479V1.43471L80.3438 1.43471V2.86942H78.9091V-6.67572e-06ZM84.6479 4.30413V5.73884H83.2132V4.30413H84.6479ZM83.2132 5.73884V7.17355L81.7785 7.17355V5.73884L83.2132 5.73884ZM81.7785 7.17355V11.4777H80.3438V7.17355H81.7785ZM93.2562 -6.67572e-06L94.6909 -6.67572e-06V7.17355H96.1256V8.60827H94.6909V11.4777H93.2562V8.60827L88.9521 8.60827V4.30413H90.3868V7.17355L93.2562 7.17355V2.86942H91.8215V1.43471H93.2562V-6.67572e-06ZM90.3868 4.30413V2.86942L91.8215 2.86942V4.30413L90.3868 4.30413ZM1.43461 23H5.73875L5.73875 24.4347H1.43461L1.43461 23ZM5.73875 24.4347H7.17346L7.17346 25.8694H5.73875V24.4347ZM1.43461 24.4347L1.43461 27.3041H-0.000102162L-0.000102162 24.4347H1.43461ZM1.43461 27.3041H5.73875L5.73875 28.7388H1.43461L1.43461 27.3041ZM5.73875 28.7388H7.17346V33.043H5.73875L5.73875 28.7388ZM5.73875 33.043V34.4777H1.43461L1.43461 33.043H5.73875ZM1.43461 33.043H-0.000102162L-0.000102162 31.6083H1.43461V33.043ZM11.4776 25.8694H15.7817V27.3041H11.4776V25.8694ZM15.7817 27.3041L17.2164 27.3041V30.1736L11.4776 30.1736V33.043H10.0429V27.3041H11.4776V28.7388H15.7817V27.3041ZM11.4776 33.043L17.2164 33.043V34.4777L11.4776 34.4777L11.4776 33.043ZM21.5206 25.8694L25.8247 25.8694V27.3041H21.5206V25.8694ZM25.8247 27.3041H27.2594V34.4777H21.5206V33.043H25.8247V30.1736H21.5206V28.7388H25.8247V27.3041ZM21.5206 33.043H20.0859V30.1736H21.5206V33.043ZM30.1289 23H31.5636V25.8694H35.8677V27.3041H31.5636V33.043H30.1289V23ZM31.5636 33.043H35.8677V34.4777H31.5636V33.043ZM45.9107 23H50.2148V24.4347H45.9107V23ZM50.2148 24.4347H51.6495V25.8694H50.2148V24.4347ZM45.9107 24.4347V27.3041H50.2148V28.7388H45.9107V33.043H44.476V24.4347H45.9107ZM50.2148 28.7388L51.6495 28.7388V33.043L50.2148 33.043V28.7388ZM50.2148 33.043V34.4777H45.9107V33.043H50.2148ZM55.9537 23H60.2578V24.4347H55.9537V23ZM60.2578 24.4347L61.6925 24.4347V25.8694L60.2578 25.8694V24.4347ZM55.9537 24.4347V33.043H54.519V24.4347H55.9537ZM55.9537 33.043H60.2578V34.4777H55.9537V33.043ZM60.2578 33.043V31.6083H61.6925V33.043H60.2578Z" fill="#262626"/>
</svg>
