<svg width="93" height="4" viewBox="0 0 93 4" fill="none" xmlns="http://www.w3.org/2000/svg">
<path d="M92.4047 0.00354001C92.6393 0.0287269 92.7783 0.174237 92.8406 0.26604C92.8984 0.351308 92.921 0.432886 92.9297 0.467603L92.9484 0.56604L92.9531 0.631665L92.9719 0.833228L92.8687 1.00198L92.7844 1.14729L92.7469 1.12385C92.673 1.28709 92.5365 1.48725 92.2781 1.57385L92.1984 1.59729L92.1187 1.62542C91.888 1.70215 91.676 1.64279 91.5328 1.5551C91.5115 1.54203 91.4956 1.52252 91.4766 1.50823L91.1344 1.54573L91.1812 1.46135C91.1732 1.46239 91.166 1.46992 91.1578 1.47073H91.0875L91.0781 1.48479L91.0031 1.54573C90.9039 1.62437 90.7688 1.69045 90.6047 1.7051C90.4431 1.71947 90.302 1.67806 90.1922 1.62073L90.1781 1.64885C90.1096 1.75328 89.9178 1.98491 89.5781 1.97229C89.3776 1.96482 89.238 1.86631 89.1469 1.78479C89.1239 1.815 89.1087 1.8582 89.0766 1.88792C88.9671 1.98823 88.7861 2.08293 88.5609 2.05667C88.3667 2.0334 88.236 1.93125 88.1719 1.86917C87.9838 1.94227 87.7898 1.93183 87.6281 1.8551L87.5437 1.81292L87.4594 1.77542C87.4376 1.76508 87.4151 1.75191 87.3937 1.7426C87.2989 1.81387 87.1924 1.88229 87.0609 1.91604L86.9812 1.93948L86.9016 1.95823C86.8397 1.97393 86.7763 1.98776 86.7141 2.00042L86.6344 2.01917L86.5547 2.03323C86.2728 2.09036 86.0415 1.97595 85.8984 1.86448L85.8141 1.79885L85.8094 1.80354C85.7945 1.80474 85.7775 1.80564 85.7625 1.80823L85.7578 1.82698L85.6875 1.95823C85.6445 2.04133 85.5327 2.23296 85.2984 2.32385C85.0091 2.435 84.7643 2.31452 84.6328 2.21135V2.21604C84.5033 2.35677 84.2592 2.50233 83.9578 2.42229C83.841 2.39115 83.7502 2.3306 83.6812 2.27229C83.6665 2.29362 83.6576 2.32116 83.6391 2.3426C83.5704 2.42183 83.4459 2.53331 83.2547 2.5676C83.0158 2.61041 82.8439 2.50972 82.7297 2.4176L82.7109 2.43635L82.6359 2.49729C82.4899 2.61529 82.3113 2.68596 82.1156 2.69417L81.9281 2.70354C81.8464 2.70681 81.7642 2.70485 81.6844 2.69885L81.6047 2.69417L81.5203 2.68479C81.2483 2.66346 81.0859 2.49726 80.9859 2.36135C80.8805 2.38673 80.7632 2.39815 80.6344 2.36604L80.5547 2.34729L80.475 2.32385C80.4302 2.31261 80.3838 2.30496 80.3391 2.29573L80.2594 2.27698L80.2125 2.2676L80.0859 2.29573C79.7402 2.36194 79.4994 2.17273 79.3734 2.02385C79.2136 2.04496 79.0524 2.01524 78.9047 1.93479C78.7566 1.99231 78.6079 2.00147 78.4641 1.9676C78.4067 2.03412 78.3311 2.11738 78.2203 2.17385C78.0519 2.25946 77.8345 2.28387 77.625 2.1926L77.5453 2.15979L77.4703 2.12229C77.3775 2.08187 77.2979 2.0259 77.2266 1.9676L77.1844 2.02385C77.1205 2.0988 77.0059 2.20924 76.8328 2.2676C76.6252 2.33749 76.4089 2.30629 76.2375 2.19729L76.1625 2.14573L76.0828 2.09885C76.06 2.08432 76.0426 2.06328 76.0219 2.04729C75.9857 2.07185 75.9541 2.10805 75.9094 2.12698C75.7946 2.17538 75.6548 2.19736 75.5062 2.16448C75.364 2.13284 75.2578 2.06143 75.1875 1.99573L75.1125 1.92542L75.0328 1.85042C74.9577 1.7796 74.8929 1.69882 74.8312 1.61604C74.8052 1.63772 74.7777 1.6647 74.7469 1.69573L74.5687 1.87385C74.5128 1.93031 74.4159 2.01368 74.2734 2.05667C74.1128 2.10508 73.9396 2.08844 73.7906 2.01448C73.6561 1.94725 73.5707 1.84411 73.5141 1.75667C73.4769 1.76544 73.4422 1.79071 73.4016 1.79417L73.3172 1.79885L73.2375 1.80823C73.1136 1.81856 73.0052 1.78896 72.9094 1.75198C72.8547 1.80635 72.7872 1.86504 72.6984 1.90667C72.4997 1.99968 72.2781 1.9856 72.0891 1.88323C71.9939 1.92126 71.8797 1.95263 71.7516 1.93479C71.5986 1.91319 71.4836 1.83932 71.4047 1.77073C71.3375 1.71217 71.2877 1.64553 71.25 1.58323C71.1836 1.63587 71.0992 1.69002 70.9922 1.71917C70.7426 1.78666 70.5206 1.70172 70.3734 1.57854C70.2021 1.6105 70.0342 1.58931 69.8906 1.50354C69.8535 1.48137 69.8268 1.44926 69.7969 1.42385C69.7182 1.46153 69.6283 1.49502 69.525 1.50354L69.45 1.51292L69.3703 1.5176C69.2961 1.52359 69.2228 1.51901 69.15 1.51292L69.1406 1.52698C69.0091 1.67086 68.7625 1.81509 68.4609 1.73323C68.3535 1.70384 68.2696 1.64634 68.2031 1.5926C68.1054 1.72323 67.8765 1.942 67.5234 1.86448C67.408 1.83869 67.3178 1.7847 67.2469 1.72854L67.2375 1.7426L67.1625 1.80823C67.0206 1.93375 66.818 2.0343 66.5719 2.01917L66.4922 2.01448L66.4078 2.00979C66.2953 2.00269 66.1868 1.97945 66.0844 1.94417L65.9156 1.88792C65.8671 1.8712 65.8283 1.83522 65.7844 1.81292C65.7359 1.8514 65.6827 1.89249 65.6156 1.92073C65.4424 1.99361 65.2599 1.99188 65.1 1.93479L65.0625 1.91604L65.0391 1.9301C64.7446 2.04932 64.4886 1.94932 64.3266 1.83635C64.2854 1.85759 64.2492 1.89011 64.2047 1.90667L64.125 1.93479L64.05 1.9676C63.9257 2.01379 63.8009 2.01838 63.6844 2.0051C63.5915 2.14857 63.4158 2.36854 63.0937 2.38479L62.9344 2.39417C62.8805 2.39688 62.8241 2.39609 62.7703 2.39885L62.6109 2.40823C62.345 2.42188 62.1393 2.29901 62.0156 2.1926L61.9266 2.11292L61.9312 2.1176C61.8673 2.12122 61.8031 2.11908 61.7391 2.1176L61.7062 2.15979C61.5729 2.30069 61.3547 2.42998 61.0734 2.40823L61.05 2.43635C60.9521 2.52573 60.8057 2.61198 60.6187 2.62854C60.4334 2.64492 60.2785 2.58347 60.1687 2.51604L60.0797 2.46448L60 2.40823C59.9372 2.45972 59.8626 2.51312 59.7656 2.54417C59.6016 2.59663 59.4469 2.57251 59.3156 2.52542C59.2241 2.58333 59.1149 2.63721 58.9828 2.64729C58.8168 2.65953 58.6738 2.61326 58.5656 2.55354L58.4766 2.50667L58.3922 2.45979L58.3875 2.4551L58.3031 2.43635L58.2937 2.43167L58.2891 2.44573C58.2542 2.53001 58.1818 2.68225 58.0359 2.79729C57.954 2.86158 57.8415 2.92003 57.7031 2.93792C57.5997 2.95105 57.5046 2.93048 57.4219 2.9051C57.3423 2.95981 57.247 3.01524 57.1312 3.03635C56.9824 3.06297 56.8418 3.04071 56.7234 2.99417L56.6391 2.96135L56.5875 2.93792H56.55L56.4703 2.9426C56.3295 2.94838 56.2084 2.91052 56.1047 2.86292C56.0213 2.93149 55.9224 2.99814 55.7953 3.03167L55.7156 3.0551L55.6359 3.07385C55.3588 3.14642 55.1389 3.03425 54.9937 2.92854L54.9562 2.97073C54.8148 3.1253 54.571 3.27693 54.2578 3.22385L54.0891 3.19573C53.9469 3.17114 53.8286 3.10703 53.7281 3.04104C53.6539 3.07749 53.5756 3.11265 53.4891 3.1301L53.4094 3.14417L53.3297 3.16292C53.1698 3.19502 53.0308 3.16197 52.9125 3.11604C52.8439 3.17513 52.7595 3.23542 52.6453 3.26604C52.4882 3.3081 52.3505 3.28465 52.2375 3.2426C52.1998 3.27759 52.1677 3.31958 52.125 3.35042L51.975 3.46292C51.844 3.55717 51.6803 3.624 51.4922 3.63167L51.4125 3.63635L51.3281 3.64104C51.1085 3.64943 50.9251 3.56815 50.7937 3.47698L50.7047 3.41135L50.6766 3.3926C50.594 3.4745 50.4746 3.55944 50.3062 3.58479C49.9194 3.6419 49.6982 3.3564 49.6453 3.2801L49.5703 3.17698L49.5516 3.2051L49.4672 3.30823C49.3687 3.42611 49.1766 3.60478 48.8859 3.62698L48.8016 3.63167L48.7219 3.64104C48.5991 3.65016 48.4781 3.63505 48.3609 3.60354L48.2812 3.58479L48.1969 3.56135C48.1172 3.53975 48.0387 3.51365 47.9625 3.48167L47.8828 3.44885L47.8031 3.41135C47.7502 3.38914 47.6967 3.36807 47.6437 3.34573L47.5875 3.32229L47.5453 3.33635C47.2678 3.41065 47.0236 3.31644 46.8562 3.18167C46.8167 3.19277 46.7786 3.20869 46.7391 3.21917L46.6547 3.23792L46.575 3.26135C46.3329 3.32548 46.1038 3.26544 45.9281 3.14885L45.9094 3.13479C45.8403 3.23155 45.6964 3.41294 45.4312 3.44417C45.174 3.47419 45.0042 3.34844 44.8969 3.2426C44.8293 3.26069 44.7588 3.2905 44.6766 3.28479C44.5145 3.27344 44.3927 3.1998 44.3016 3.1301L44.2641 3.17698C44.1879 3.25839 44.0459 3.37741 43.8375 3.41135C43.6764 3.43756 43.5395 3.39309 43.425 3.33635C43.2979 3.4095 43.144 3.47523 42.9562 3.45823L42.8766 3.44885L42.7969 3.44417C42.5837 3.42484 42.4306 3.31342 42.3422 3.22385C42.3273 3.20877 42.3179 3.18787 42.3047 3.17229L42.2344 3.22854C42.0778 3.34326 41.8497 3.43097 41.5875 3.37385L41.5078 3.3551L41.4281 3.34104C41.3204 3.31758 41.2183 3.27676 41.1234 3.22854L41.0437 3.19104L40.9641 3.14885C40.8608 3.09641 40.7663 3.02905 40.6828 2.95667L40.6172 2.90042V2.9051C40.5629 2.94387 40.5074 2.98301 40.4531 3.02229L40.3734 3.08323L40.2891 3.14417C40.1165 3.2688 39.8548 3.33488 39.5953 3.20979C39.4996 3.16324 39.4252 3.09773 39.3703 3.03635C39.3633 3.0441 39.3591 3.0568 39.3516 3.06448C39.2902 3.12635 39.1818 3.21412 39.0234 3.25198C38.7344 3.32091 38.5374 3.17884 38.4187 3.06448C38.26 3.10887 38.0827 3.11245 37.9031 3.02698L37.7437 2.95198C37.678 2.92052 37.6193 2.87521 37.5609 2.83479L37.5 2.92385C37.4376 3.00536 37.2478 3.22355 36.9234 3.21448C36.7703 3.21015 36.6529 3.15169 36.5625 3.08792C36.5407 3.09839 36.5209 3.11672 36.4969 3.12542C36.3189 3.18951 36.1265 3.18066 35.9578 3.10198L35.7984 3.02698C35.6516 2.95836 35.5496 2.84877 35.4703 2.75042L35.4469 2.76917C35.3106 2.87101 35.1177 2.94727 34.8891 2.92854L34.8469 2.97542C34.7127 3.10503 34.4652 3.26217 34.1437 3.19573L34.0641 3.17698L33.9844 3.16292C33.8044 3.12572 33.676 3.02431 33.5812 2.92854C33.4907 2.96237 33.3907 2.98939 33.2766 2.98479H33.1969L33.1125 2.9801C32.9077 2.97131 32.7384 2.88697 32.6109 2.78792L32.5781 2.76448C32.4625 2.78148 32.3563 2.77338 32.2594 2.74573C32.1445 2.8841 31.9341 3.08507 31.5984 3.04104L31.4391 3.02229C31.2839 3.00193 31.159 2.93771 31.0641 2.86292C31.0415 2.87416 31.0235 2.89579 30.9984 2.9051C30.8377 2.9647 30.6726 2.95153 30.5203 2.89573C30.39 2.97466 30.2144 3.0352 30.0094 2.98948C29.8549 2.95469 29.7443 2.87148 29.6672 2.79729C29.5871 2.81507 29.5016 2.82968 29.4094 2.81604C29.2389 2.79064 29.1086 2.70662 29.0203 2.62854L29.0109 2.62385C28.8846 2.64375 28.7699 2.63032 28.6641 2.59573C28.594 2.66326 28.5021 2.74461 28.3687 2.78323C28.2394 2.82034 28.115 2.81641 28.0078 2.78792L27.7406 2.64729C27.6167 2.6722 27.5018 2.65825 27.3937 2.62854C27.3311 2.69591 27.2477 2.7766 27.1266 2.82542C26.9115 2.91184 26.6859 2.87903 26.5078 2.76917L26.4281 2.72229L26.3484 2.67073C26.2898 2.63445 26.24 2.58771 26.1891 2.54417C26.1681 2.5556 26.1493 2.57095 26.1281 2.58167L25.9594 2.66604C25.7831 2.75432 25.5795 2.77347 25.3781 2.71292C25.2322 2.81778 25.0281 2.91015 24.7828 2.87229L24.6234 2.84417C24.4282 2.81402 24.2735 2.71975 24.1594 2.61917L24.0797 2.55354L24 2.48323C23.9834 2.46864 23.9781 2.46288 23.9812 2.46448L23.9484 2.45042L23.9203 2.45979L23.7516 2.57229C23.6056 2.66764 23.4108 2.73413 23.1891 2.70823L23.1094 2.69885L23.0906 2.69417L23.0578 2.70823L22.9781 2.74104C22.8135 2.80106 22.6328 2.79834 22.4672 2.73167C22.3176 2.67083 22.2127 2.57073 22.1484 2.4926L22.0687 2.39417L22.0312 2.34729C21.8929 2.42042 21.7235 2.47674 21.5203 2.43167L21.4875 2.4551C21.318 2.56608 21.0758 2.62023 20.8359 2.51604C20.6947 2.45435 20.6057 2.35167 20.5453 2.27229L20.5078 2.29104L20.4281 2.32854C20.2827 2.39223 20.1192 2.4066 19.9594 2.36604C19.8781 2.34537 19.8079 2.31349 19.7484 2.27698L19.725 2.31448C19.666 2.40421 19.4787 2.64883 19.1344 2.6426C18.9241 2.63834 18.7825 2.53314 18.6891 2.44573C18.6182 2.47368 18.5446 2.50437 18.4594 2.51135L18.3937 2.59104C18.2865 2.7153 18.1018 2.87142 17.8359 2.89573L17.7516 2.90042L17.6719 2.90979C17.6025 2.91594 17.5306 2.91849 17.4609 2.91917H17.3016C17.0481 2.92161 16.8665 2.79351 16.7484 2.68479C16.629 2.72072 16.5034 2.74192 16.3687 2.7176L16.3359 2.74104C16.1393 2.87699 15.8815 2.90372 15.6516 2.7926C15.4784 2.70846 15.3738 2.57431 15.3234 2.49729C15.2432 2.56196 15.1523 2.62872 15.0375 2.66604L14.9578 2.68948L14.8781 2.7176C14.8488 2.7271 14.816 2.736 14.7844 2.75042L14.625 2.82542C14.4375 2.91155 14.2282 2.92625 14.0297 2.86292L13.9453 2.83479L13.8937 2.81604L13.8422 2.82073L13.7625 2.82542C13.6203 2.83459 13.4834 2.80999 13.3594 2.76448C13.2492 2.82614 13.1256 2.87381 12.9891 2.89104L12.8297 2.90979C12.6532 2.93205 12.5071 2.88372 12.3891 2.82073C12.3013 2.87929 12.1896 2.93223 12.0469 2.93792C11.8838 2.94404 11.7543 2.89208 11.6578 2.8301C11.5977 2.8595 11.535 2.89887 11.4562 2.90979C11.3592 2.92311 11.2723 2.90677 11.1937 2.88635C11.0908 2.99636 10.9447 3.11888 10.725 3.14417L10.5656 3.16292C10.5463 3.16513 10.5217 3.17068 10.5 3.17698L10.3406 3.22385C10.0379 3.31112 9.78301 3.18827 9.62811 3.05979L9.54374 2.98948L9.5203 2.99417C9.42451 2.99535 9.34125 2.96428 9.26249 2.93792C9.19911 3.0038 9.11549 3.07306 8.99999 3.11604C8.73406 3.21497 8.49476 3.12779 8.34843 3.0176L8.26405 2.95198L8.24061 2.93323H8.17968L8.18436 2.92854L8.09999 2.94729L8.0203 2.96604C8.01798 2.96672 8.01423 2.97138 8.00624 2.97542L7.92655 3.01292L7.84686 3.0551C7.77944 3.08956 7.70997 3.12058 7.64061 3.14885L7.48124 3.21448C7.26597 3.30183 7.0474 3.26951 6.88124 3.17698C6.8251 3.14563 6.78166 3.10198 6.74061 3.06448C6.64551 3.18254 6.42553 3.39604 6.07968 3.32229C6.02358 3.31029 5.97504 3.28806 5.92968 3.26604C5.92404 3.27046 5.92146 3.28048 5.91561 3.28479C5.73236 3.41942 5.47672 3.46532 5.23593 3.35979L5.15624 3.32229L5.14686 3.3176L5.08593 3.33167C4.79099 3.37957 4.56043 3.24615 4.42499 3.12542L4.40155 3.10667C4.21988 3.13764 4.04871 3.11509 3.89999 3.04104L3.81561 3.00354L3.73124 2.96135C3.71414 2.95288 3.70245 2.94821 3.69843 2.94729L3.61874 2.92854L3.60936 2.92385V2.92854L3.52968 2.95667C3.47688 2.97342 3.42311 2.98699 3.3703 3.00354L3.31405 3.02229L3.28124 3.06917L3.20624 3.17229C3.09509 3.32397 2.81235 3.59329 2.39999 3.47698L2.3203 3.45354L2.23593 3.4301C2.10497 3.39308 2.001 3.32225 1.91249 3.25198C1.83041 3.28856 1.74007 3.31714 1.64061 3.32698L1.56093 3.33635H1.54686L1.51874 3.35979L1.43905 3.41135C1.36675 3.46017 1.29167 3.50396 1.21405 3.5426L1.13436 3.58479L1.05468 3.62229C0.798331 3.74929 0.552568 3.68372 0.403113 3.59885C0.271133 3.52359 0.176341 3.41655 0.117175 3.34104L-1.22217e-05 3.19104L0.3703 2.89573V2.82542L0.342175 2.22542L0.440613 2.22073L0.749988 2.20198L0.862488 2.35198L0.923425 2.30979C1.04384 2.22834 1.19182 2.16744 1.35936 2.15042L1.44374 2.14104L1.46249 2.12698L1.54218 2.06604L1.77655 1.94885C1.86645 1.92379 1.96935 1.91725 2.07655 1.93479C2.17201 1.95071 2.25307 1.9846 2.3203 2.02385L2.48436 2.15042C2.57235 2.05739 2.68983 1.96164 2.84999 1.91135L2.92968 1.88323L3.16874 1.81292L3.24843 1.78479L3.32811 1.76135L3.56718 1.71917L3.80624 1.7426L3.88593 1.76135L3.9703 1.7801C4.07471 1.80423 4.17285 1.84177 4.26561 1.88792L4.29843 1.90198H4.31718L4.54686 1.86917C4.69236 1.87281 4.81996 1.92027 4.92186 1.98167L5.05311 2.0801L5.0953 2.1176C5.14635 2.11181 5.19618 2.11458 5.2453 2.1176C5.27298 2.06227 5.32068 1.98781 5.39061 1.91604C5.46801 1.83687 5.60912 1.73049 5.81249 1.71448C6.00362 1.69964 6.15333 1.77246 6.24843 1.84104C6.25777 1.83484 6.26688 1.82823 6.27655 1.82229L6.35624 1.77073L6.43593 1.72385L6.59061 1.65354C6.75039 1.60376 6.92479 1.61271 7.0828 1.68635C7.22772 1.75399 7.31999 1.86254 7.37811 1.93948L7.4578 1.90667C7.55153 1.85876 7.65174 1.81807 7.7578 1.79417L7.83749 1.77542L7.92186 1.76135C8.02966 1.73733 8.13927 1.7262 8.24999 1.73323L8.33436 1.73792L8.41405 1.7426C8.48354 1.74709 8.54568 1.77075 8.60624 1.78948C8.67443 1.71463 8.77336 1.63281 8.91093 1.58792C9.19319 1.49635 9.4316 1.61035 9.56249 1.71917L9.64686 1.78948H9.66561C9.90556 1.78614 10.0964 1.89067 10.2234 1.99573L10.2375 2.0051C10.2869 1.99314 10.337 1.98408 10.3875 1.97698L10.4625 1.86448L10.6031 1.70042C10.6704 1.64049 10.7607 1.5836 10.875 1.55042C11.0342 1.50447 11.1745 1.53005 11.2922 1.57385C11.3959 1.49961 11.5349 1.42764 11.7187 1.43792C11.8242 1.44385 11.9114 1.47967 11.9859 1.5176C12.0625 1.46994 12.1564 1.43095 12.2719 1.41917C12.4193 1.4045 12.5448 1.43568 12.6422 1.48479L12.8531 1.64417L12.8719 1.66292L12.9328 1.6301L13.0922 1.55979C13.2571 1.50756 13.4363 1.50813 13.6078 1.57385L13.6922 1.60667L13.7297 1.62073H13.7625L13.8469 1.61604L14.0437 1.62542L14.2312 1.6676L14.2547 1.67229L14.2828 1.66292C14.356 1.62932 14.4316 1.59854 14.5078 1.57385L14.5875 1.55042L14.6437 1.49417L14.7187 1.40979C14.8445 1.27347 15.0695 1.11448 15.375 1.1426L15.4547 1.15198L15.5391 1.15667C15.8353 1.18434 16.0132 1.38682 16.1062 1.51292C16.2034 1.49154 16.3107 1.48833 16.4203 1.50823L16.4484 1.51292L16.4953 1.48948L16.7484 1.40042C16.8387 1.38752 16.9342 1.39352 17.0297 1.41917C17.1142 1.44195 17.1856 1.47811 17.2453 1.5176L17.3906 1.63948L17.4609 1.71448C17.4953 1.71392 17.5298 1.71747 17.5641 1.71448L17.6391 1.6301L17.8594 1.4426C17.9528 1.38574 18.0671 1.3411 18.2016 1.3301L18.2391 1.32073H18.2484L18.3234 1.25042C18.4663 1.12344 18.7048 1.02066 18.975 1.10042C19.0296 1.11657 19.0721 1.15068 19.1156 1.17542C19.1691 1.13368 19.2241 1.08814 19.2937 1.05823L19.3734 1.02542L19.4531 0.987915L19.6969 0.931665C19.9112 0.918859 20.0931 1.01022 20.2172 1.10979C20.2309 1.10348 20.2453 1.09758 20.2594 1.09104L20.3437 1.04885L20.4281 1.01135L20.7328 0.945728C20.8371 0.947086 20.9433 0.969613 21.0422 1.02073C21.1466 1.07469 21.2208 1.15052 21.2766 1.2176C21.3638 1.19834 21.459 1.20315 21.5578 1.2176L21.5859 1.19417L21.7641 1.07698C21.8375 1.04209 21.9267 1.01757 22.0266 1.01135C22.2334 0.999102 22.401 1.07652 22.5141 1.16604L22.5937 1.23167L22.6734 1.2926C22.7535 1.35639 22.8234 1.4317 22.8891 1.50823C22.9062 1.50507 22.9233 1.50108 22.9406 1.49885H23.1891L23.2594 1.45667C23.3566 1.39284 23.467 1.34159 23.5875 1.30667L23.6672 1.28323L23.7516 1.25979L24.0516 1.22698L24.3375 1.30667L24.4969 1.38167C24.6087 1.4348 24.7055 1.50693 24.7922 1.58323L24.8391 1.62073H24.8437L24.9984 1.53167C25.1621 1.45622 25.363 1.42781 25.575 1.50823H25.5844C25.6187 1.4909 25.6585 1.47214 25.6969 1.44729L25.7766 1.39104L25.8609 1.33948L26.0859 1.24104C26.171 1.22015 26.2658 1.21474 26.3672 1.23167C26.4633 1.24789 26.5474 1.28018 26.6156 1.32073L26.7797 1.45198L26.7984 1.47073C26.8605 1.41579 26.9404 1.36072 27.0422 1.32542C27.2831 1.24212 27.5144 1.30567 27.675 1.42385H27.6797C27.8218 1.39152 27.9552 1.40459 28.0734 1.4426C28.1428 1.37684 28.2398 1.3071 28.3687 1.26917C28.4948 1.23223 28.6142 1.23345 28.7203 1.25979L28.9969 1.40042L29.0016 1.4051C29.2367 1.36093 29.4387 1.43428 29.5875 1.54104C29.7109 1.50173 29.8497 1.48391 29.9953 1.52698C30.1051 1.5599 30.191 1.62044 30.2578 1.67698C30.3056 1.66171 30.3572 1.64485 30.4125 1.63948C30.4857 1.63252 30.5568 1.6358 30.6234 1.64885C30.7155 1.55308 30.8917 1.40916 31.1578 1.42385C31.3636 1.43526 31.5023 1.54006 31.5937 1.6301C31.6559 1.55833 31.7443 1.47572 31.8703 1.42385C32.0716 1.34149 32.2684 1.36646 32.4234 1.4426L32.5594 1.53167L32.5828 1.55042C32.7009 1.53359 32.8114 1.5444 32.9109 1.57385L33.1875 1.71917L33.2156 1.73792L33.2437 1.71917L33.4969 1.57854C33.6029 1.54543 33.7294 1.53778 33.8672 1.57385C34.0932 1.63369 34.2244 1.78765 34.2844 1.87385C34.418 1.77612 34.6048 1.68139 34.8422 1.71448L34.8937 1.68167L35.2266 1.50354L35.3109 1.47542L35.3906 1.44729C35.584 1.3823 35.7833 1.40933 35.9484 1.49885C36.0196 1.53747 36.0792 1.58287 36.1266 1.6301L36.2391 1.76604L36.2484 1.7801C36.3561 1.70789 36.5058 1.64036 36.6984 1.66292C36.7971 1.67455 36.8775 1.71262 36.9469 1.75198C37.011 1.70556 37.0816 1.65897 37.1672 1.6301L37.2516 1.60198L37.3312 1.57385C37.5453 1.50217 37.7492 1.5342 37.9125 1.61604L38.0625 1.71448L38.1422 1.77542L38.2031 1.82698C38.3468 1.74421 38.5409 1.6869 38.7562 1.75667C38.7661 1.75988 38.7749 1.76717 38.7844 1.77073C38.8018 1.75293 38.8161 1.73135 38.8359 1.71448C38.9172 1.64563 39.0424 1.56816 39.2016 1.54573H39.3703L39.4547 1.55042L39.5344 1.55979C39.7717 1.58614 39.9208 1.72928 40.0219 1.85042L40.0875 1.81292L40.3594 1.68167C40.4127 1.66693 40.4689 1.65647 40.5281 1.65354L40.7109 1.66292L40.7906 1.68167L40.8703 1.69573C40.9618 1.71279 41.0451 1.74163 41.1187 1.7801L41.3109 1.91604L41.3906 1.98167L41.4703 2.05198C41.4916 2.0704 41.5048 2.07857 41.5078 2.0801L41.5875 2.1176L41.6578 2.1551L41.6906 2.13635C41.7188 2.11567 41.7519 2.08865 41.7891 2.05198L41.8734 1.9676L41.9578 1.88792L42.075 1.79417C42.124 1.7623 42.1835 1.73033 42.2531 1.70979C42.4033 1.66583 42.5599 1.67847 42.6984 1.73792C42.8141 1.78794 42.9006 1.86312 42.9609 1.93479L43.0781 2.11292L43.0828 2.12698C43.172 2.07852 43.2842 2.03994 43.4156 2.03792C43.5059 2.03675 43.5867 2.05427 43.6594 2.0801C43.7439 2.00914 43.8474 1.94261 43.9734 1.90198L44.0578 1.87385L44.1375 1.84573C44.3959 1.76335 44.621 1.83641 44.7797 1.94417C44.9021 1.89412 45.0504 1.86088 45.2203 1.91135C45.2524 1.92091 45.2765 1.94532 45.3047 1.95823C45.328 1.93891 45.3523 1.91471 45.3797 1.89729C45.5434 1.79387 45.7716 1.74438 46.0031 1.83635L46.1625 1.90198C46.2581 1.94019 46.3506 1.98684 46.4344 2.0426L46.4437 2.04729C46.4886 2.0353 46.5347 2.02744 46.5797 2.01448L46.6641 1.99104L46.7437 1.9676C46.957 1.90606 47.154 1.94585 47.3109 2.02854L47.4516 2.12229L47.4609 2.12698C47.5335 2.1131 47.6048 2.10317 47.6766 2.10823L47.9484 2.17385L48.2672 2.3051L48.3469 2.3426L48.4266 2.37542C48.456 2.38776 48.4844 2.39636 48.5109 2.40354L48.5906 2.42698L48.6281 2.43167L48.7125 2.33323C48.8094 2.21707 48.9877 2.05483 49.2516 2.01448L49.4109 1.98635C49.5173 1.97009 49.6268 1.96926 49.7344 1.98167L49.8937 2.00042C50.0007 2.01275 50.0921 2.05054 50.1703 2.09417C50.2121 2.06537 50.2523 2.02589 50.3062 2.0051C50.4473 1.95103 50.5805 1.95026 50.6953 1.97698L50.9812 2.1176L51.1594 2.25823C51.2089 2.29772 51.2576 2.33332 51.3047 2.36604L51.375 2.41292L51.4266 2.3801C51.4291 2.37809 51.4405 2.36584 51.4594 2.3426L51.5297 2.25354L51.6047 2.16448L51.7781 2.0051C51.8559 1.95451 51.9559 1.91635 52.0734 1.90198C52.167 1.89072 52.2512 1.9011 52.3266 1.92073C52.4019 1.84973 52.5056 1.77912 52.6453 1.74729C52.7865 1.71551 52.9128 1.73466 53.0156 1.77073L53.25 1.90667L53.2641 1.92073L53.3391 1.87385C53.4662 1.78658 53.6333 1.72973 53.8172 1.74729C53.987 1.76401 54.1181 1.83952 54.2062 1.90667L54.2625 1.95354C54.3474 1.87001 54.4523 1.79132 54.5812 1.73792L54.6609 1.7051L54.7359 1.67229C55.0409 1.54618 55.3059 1.65793 55.4672 1.77542C55.5465 1.67552 55.6998 1.53435 55.9359 1.50354C56.0594 1.48766 56.1685 1.50761 56.2594 1.54104L56.475 1.66292L56.5641 1.73792H56.5828C56.7005 1.73309 56.8118 1.75267 56.9156 1.78479C57.0021 1.7226 57.1121 1.66834 57.2437 1.64885C57.269 1.64515 57.2942 1.6499 57.3187 1.64885C57.3552 1.56475 57.4157 1.44779 57.5203 1.34885C57.6222 1.25259 57.7733 1.17312 57.9516 1.16135L58.1391 1.17542L58.2187 1.18948L58.5562 1.26448L58.6406 1.27854C58.7269 1.29725 58.8035 1.33729 58.8797 1.37229C58.9637 1.3215 59.0625 1.27731 59.1797 1.26448C59.261 1.25563 59.3388 1.25915 59.4094 1.27385C59.4843 1.20162 59.5871 1.12713 59.7281 1.09104C59.8374 1.06331 59.941 1.06343 60.0328 1.08167L60.2719 1.17542L60.3562 1.22698L60.4453 1.27854C60.4716 1.29449 60.4987 1.30935 60.525 1.32542C60.6456 1.25112 60.7869 1.19276 60.9562 1.19885L60.9797 1.1801L61.2328 0.992603C61.3342 0.943713 61.4532 0.913373 61.5891 0.917603H61.6734L61.7531 0.92229C61.7891 0.923483 61.8257 0.92422 61.8609 0.92229L61.9453 0.917603L62.025 0.912915L62.2125 0.92229C62.2716 0.933532 62.3262 0.952377 62.3766 0.973853L62.6203 1.12854L62.7094 1.20354L62.775 1.19885L62.8219 1.11448L62.925 0.955103C62.9745 0.896397 63.042 0.839115 63.1266 0.79104C63.2849 0.701208 63.4575 0.680759 63.6141 0.71604L63.7641 0.767603L63.7875 0.781665L63.7922 0.776978L63.8672 0.720728L63.9469 0.664478L64.1766 0.551978C64.2638 0.527141 64.361 0.519464 64.4625 0.533228C64.6454 0.558464 64.779 0.649153 64.8609 0.720728L64.8656 0.730103C64.9648 0.706344 65.0594 0.70334 65.1562 0.71604C65.2362 0.622031 65.3687 0.503238 65.5734 0.467603C65.6968 0.446504 65.8084 0.460573 65.9016 0.49104L66.1266 0.608228L66.3047 0.748853C66.312 0.75444 66.3169 0.757118 66.3187 0.758228L66.4734 0.80979C66.4831 0.813104 66.4867 0.814717 66.4828 0.814478L66.5203 0.781665C66.5359 0.76786 66.5578 0.743519 66.5859 0.706665L66.7266 0.519165C66.7762 0.453994 66.8608 0.36321 66.9891 0.30354C67.13 0.238351 67.2876 0.227606 67.4344 0.26604C67.5314 0.291723 67.6095 0.339659 67.6734 0.387915L67.7297 0.34104L67.8047 0.28479L67.9547 0.195728C68.1131 0.127948 68.295 0.121488 68.4703 0.19104C68.5719 0.231516 68.6492 0.293185 68.7094 0.350415C68.8155 0.308447 68.937 0.281256 69.075 0.298853L69.1547 0.308228L69.2391 0.32229H69.2859L69.3094 0.298853L69.3984 0.214478L69.6281 0.0551025C69.7328 0.00998945 69.8641 -0.0167126 70.0172 0.012915C70.276 0.0633146 70.4153 0.245762 70.4766 0.34104C70.5651 0.339256 70.6467 0.361539 70.725 0.387915C70.8223 0.290085 70.9574 0.180995 71.1469 0.139478L71.2312 0.120728L71.3109 0.101978C71.6024 0.0381494 71.8309 0.175328 71.9531 0.30354C72.0562 0.412237 72.1119 0.540566 72.1453 0.626978L72.1594 0.62229C72.1897 0.623912 72.2199 0.63603 72.2484 0.64104C72.3105 0.558749 72.4314 0.418758 72.6328 0.35979C72.9139 0.277772 73.139 0.39914 73.275 0.523853L73.2937 0.505103L73.4203 0.41604C73.4743 0.385424 73.541 0.356854 73.6172 0.34104C73.7812 0.307584 73.9414 0.337872 74.0719 0.411353C74.141 0.450599 74.1861 0.511919 74.2312 0.561353L74.3016 0.50979L74.5453 0.373853C74.6409 0.338613 74.7524 0.319489 74.8734 0.326978L75.0328 0.336353C75.3353 0.355076 75.5241 0.545573 75.6234 0.67854C75.6952 0.620742 75.8082 0.548392 75.9609 0.52854C76.3505 0.478719 76.5599 0.765687 76.6219 0.86604C76.7057 0.801859 76.8111 0.746788 76.9359 0.71604L77.0203 0.692603L77.1047 0.673853L77.325 0.655103C77.5252 0.66719 77.6914 0.76153 77.8078 0.870728C77.8712 0.803801 77.9612 0.726529 78.0844 0.67854C78.2959 0.59662 78.5153 0.632579 78.6891 0.739478C78.894 0.668748 79.1113 0.683318 79.3078 0.79104C79.4687 0.730162 79.6512 0.720605 79.8281 0.795728C79.91 0.83067 79.9804 0.874058 80.0344 0.92229L80.1609 1.06292L80.1656 1.07229C80.1844 1.07131 80.203 1.06753 80.2219 1.0676L80.4234 1.08635L80.5031 1.1051L80.5828 1.11917C80.6251 1.12789 80.6673 1.1373 80.7094 1.14729L80.7375 1.12854L80.8687 1.04417C81.0169 0.968532 81.222 0.926684 81.4453 1.02542C81.6665 1.12378 81.7703 1.31006 81.8109 1.39104L81.8672 1.50354H81.8812L81.9609 1.49885L82.0312 1.4426C82.0608 1.41866 82.0958 1.38863 82.1297 1.35354L82.2 1.27854L82.275 1.19885C82.4145 1.05494 82.6627 0.930184 82.9547 1.01604C82.9712 1.02094 82.986 1.03361 83.0016 1.03948C83.0925 0.946454 83.2382 0.839622 83.4422 0.819165L83.5219 0.814478L83.6016 0.805103C83.8793 0.777248 84.0704 0.921606 84.1922 1.03948C84.258 1.00957 84.327 0.975807 84.4078 0.964478L84.4875 0.955103L84.5719 0.945728L84.7641 0.94104C84.8037 0.945732 84.8403 0.959157 84.8766 0.969165C84.9669 0.855221 85.1003 0.730528 85.3031 0.683228L85.4625 0.645728C85.5439 0.626901 85.6276 0.614959 85.7109 0.608228L85.7906 0.60354L85.8703 0.594165L86.0531 0.60354C86.1095 0.612166 86.1634 0.622778 86.2125 0.64104L86.4562 0.781665L86.4984 0.819165C86.5338 0.811647 86.5709 0.804718 86.6062 0.795728L86.6859 0.776978L86.7 0.77229L86.7516 0.730103L86.8266 0.669165L86.9766 0.561353C87.0355 0.530756 87.1038 0.51034 87.1781 0.495728C87.3299 0.466051 87.4736 0.485327 87.5953 0.533228L87.6797 0.56604L87.7359 0.589478C87.7755 0.541541 87.8259 0.488211 87.8953 0.444165C88.0436 0.350486 88.2311 0.313785 88.4156 0.364478C88.4995 0.387837 88.5678 0.429588 88.6219 0.467603C88.729 0.400677 88.865 0.344757 89.0297 0.355103L89.1094 0.35979L89.1937 0.364478C89.354 0.375008 89.482 0.438965 89.5828 0.50979C89.6678 0.454136 89.7678 0.404023 89.8922 0.387915L89.9719 0.37854L90.0562 0.369165L90.3375 0.37854C90.3919 0.390169 90.4388 0.419454 90.4875 0.439478C90.5975 0.367765 90.7244 0.304698 90.8766 0.289478H90.8953L90.9656 0.219165C91.0278 0.153947 91.1227 0.0740401 91.2562 0.031665C91.397 -0.0129679 91.5395 -0.00413426 91.6641 0.0363525C91.7705 0.0711008 91.8531 0.129566 91.9172 0.186353C91.9363 0.167267 91.9492 0.138997 91.9734 0.120728C92.0345 0.0747585 92.1888 -0.0193818 92.4047 0.00354001ZM4.92655 2.38479L4.94999 2.5301L5.0203 2.45042L4.99686 2.3051L4.92655 2.38479ZM5.0203 2.45042L4.94999 2.5301L4.92655 2.38479L4.99686 2.3051L5.0203 2.45042ZM31.5703 1.98635L31.5469 2.16917L31.7156 2.05198L31.5891 1.97229L31.5703 1.98635ZM31.65 2.00979L31.6359 2.10823L31.5469 2.16917L31.5703 1.98635L31.5891 1.97229L31.65 2.00979ZM9.50624 1.95354V2.12698L9.58593 2.03323V1.85979L9.50624 1.95354ZM9.58593 2.03323L9.50624 2.12698V1.95354L9.58593 1.85979V2.03323ZM31.7156 2.05198L31.6359 2.10823L31.65 2.00979L31.7156 2.05198ZM77.8125 1.20354L77.7281 1.13323L77.6203 1.24104L77.7094 1.30667L77.8125 1.20354ZM77.8125 1.20354L77.7094 1.30667L77.6203 1.24104L77.7281 1.13323L77.8125 1.20354ZM86.3578 1.08635L86.3859 1.22698L86.4516 1.1426L86.4234 1.00198L86.3578 1.08635ZM86.4516 1.1426L86.3859 1.22698L86.3578 1.08635L86.4234 1.00198L86.4516 1.1426ZM92.3766 0.898853L92.4047 1.17542C92.5362 1.16066 92.632 1.12137 92.6812 1.08635L92.3766 0.898853ZM74.5406 1.14729C74.5401 1.14604 74.5398 1.14056 74.5359 1.13323L74.5312 1.12385L74.5406 1.14729Z" fill="#FBFBFB"/>
</svg>
