<svg width="376" height="184" viewBox="0 0 376 184" fill="none" xmlns="http://www.w3.org/2000/svg">
<path d="M12.5441 99.6919C12.5441 104.313 13.8644 106.294 13.8644 106.294C13.8644 106.294 9.19237 106.747 5.9419 109.595C2.90677 112.255 9.72378e-05 117.848 8.31609e-05 122.139L3.32876e-05 131.831C-5.90884e-06 138.07 -3.124e-05 142.101 8.061e-05 143.926C0.00076854 155.15 9.11066 161.092 17.1655 161.092C74.6038 161.092 155.81 162.412 214.569 162.412C221.831 162.412 225.132 158.451 225.132 153.829L225.132 123.46C225.132 119.498 221.171 114.877 217.209 114.877H200.704L200.704 20.4665C200.704 14.5246 199.384 9.90317 194.762 5.9419C190.141 1.98063 184.405 0 180.898 0L52.1567 2.51871e-05C46.7362 2.02424e-05 41.1321 2.463 37.6321 6.60214C34.6309 10.1514 32.3504 17.1655 32.3504 17.1655C32.3504 17.1655 25.0881 17.1655 18.486 22.4472C14.2199 25.8601 12.5441 31.6901 12.5441 34.331V99.6919Z" fill="white"/>
<rect x="19.8711" y="24.0152" width="35.806" height="87.6069" rx="13.7589" fill="#393939" stroke="black" stroke-width="5.63475"/>
<rect x="39.5552" y="7.43896" width="151.84" height="120.76" rx="13.7589" fill="#3F3F3F" stroke="black" stroke-width="5.63475"/>
<rect x="69.6001" y="7.43896" width="122.832" height="120.76" rx="13.7589" fill="white" stroke="black" stroke-width="5.63475"/>
<rect x="82.3228" y="20.1618" width="97.3858" height="88.0616" rx="4.14407" fill="#C3C3C3"/>
<mask id="mask0_105_1271" style="mask-type:alpha" maskUnits="userSpaceOnUse" x="82" y="20" width="98" height="89">
<rect x="82.3228" y="20.1618" width="97.3858" height="88.0616" rx="4.14407" fill="#C3C3C3"/>
</mask>
<g mask="url(#mask0_105_1271)">
<path d="M81.2866 19.1258H184.888L181.78 110.295L81.2866 19.1258Z" fill="black"/>
</g>
<rect x="87.5027" y="27.414" width="80.8095" height="74.5934" rx="2.07204" fill="black" stroke="black" stroke-width="4.14407"/>
<rect x="89.5747" y="29.486" width="76.6654" height="70.4493" rx="2.07204" fill="#8EB6FF"/>
<rect x="87.7251" y="32.5891" width="80.7065" height="0.799075" fill="black"/>
<rect x="87.7251" y="35.9452" width="80.7065" height="0.799075" fill="black"/>
<rect x="87.7251" y="39.3013" width="80.7065" height="0.799075" fill="black"/>
<rect x="87.7251" y="42.6575" width="80.7065" height="0.799075" fill="black"/>
<rect x="87.7251" y="46.0135" width="80.7065" height="0.799075" fill="black"/>
<rect x="87.7251" y="49.3696" width="80.7065" height="0.799075" fill="black"/>
<rect x="87.7251" y="52.7258" width="80.7065" height="0.799075" fill="black"/>
<rect x="87.7251" y="56.0819" width="80.7065" height="0.799075" fill="black"/>
<rect x="87.7251" y="59.438" width="80.7065" height="0.799075" fill="black"/>
<rect x="87.7251" y="62.7941" width="80.7065" height="0.799075" fill="black"/>
<rect x="87.7251" y="66.1502" width="80.7065" height="0.799075" fill="black"/>
<rect x="87.7251" y="69.5063" width="80.7065" height="0.799075" fill="black"/>
<rect x="87.7251" y="72.8624" width="80.7065" height="0.799075" fill="black"/>
<rect x="87.7251" y="76.2186" width="80.7065" height="0.799075" fill="black"/>
<rect x="87.7251" y="79.5746" width="80.7065" height="0.799075" fill="black"/>
<rect x="87.7251" y="82.9308" width="80.7065" height="0.799075" fill="black"/>
<rect x="87.7251" y="86.2869" width="80.7065" height="0.799075" fill="black"/>
<rect x="87.7251" y="89.643" width="80.7065" height="0.799075" fill="black"/>
<rect x="87.7251" y="92.9991" width="80.7065" height="0.799075" fill="black"/>
<rect x="87.7251" y="96.3553" width="80.7065" height="0.799075" fill="black"/>
<rect x="87.7251" y="99.7114" width="80.7065" height="0.799075" fill="black"/>
<rect x="110.898" y="33.3882" width="45.5473" height="3.1963" fill="black"/>
<rect x="106.104" y="36.5845" width="47.1454" height="3.1963" fill="black"/>
<rect x="102.907" y="39.7808" width="46.3463" height="3.1963" fill="black"/>
<rect x="100.51" y="42.9772" width="47.1454" height="3.1963" fill="black"/>
<rect x="99.7114" y="46.1734" width="38.5953" height="3.1963" fill="black"/>
<rect x="142.461" y="46.1734" width="5.19398" height="3.1963" fill="black"/>
<rect x="129.277" y="56.5613" width="18.3787" height="3.1963" fill="black"/>
<path d="M142.062 53.365H147.656V56.5613H141.263L142.062 53.365Z" fill="black"/>
<path d="M126.081 53.365H143.54L144.459 56.5613H126.081V53.365Z" fill="black"/>
<rect x="142.461" y="50.1688" width="5.19398" height="3.1963" fill="black"/>
<rect x="99.1519" y="50.1688" width="40.7528" height="3.1963" fill="black"/>
<rect x="98.3525" y="53.365" width="40.7528" height="3.1963" fill="black"/>
<rect x="98.1128" y="56.5613" width="26.3695" height="3.1963" fill="black"/>
<rect x="98.1128" y="59.7577" width="29.5658" height="3.1963" fill="black"/>
<rect x="98.1128" y="62.954" width="32.7621" height="3.1963" fill="black"/>
<rect x="98.1128" y="66.9494" width="35.9584" height="3.1963" fill="black"/>
<rect x="98.1128" y="70.1456" width="39.1546" height="3.1963" fill="black"/>
<rect x="99.7114" y="73.342" width="40.7528" height="3.1963" fill="black"/>
<rect x="102.907" y="76.5382" width="40.7528" height="3.1963" fill="black"/>
<rect x="106.104" y="79.7346" width="40.7528" height="3.1963" fill="black"/>
<rect x="109.3" y="83.7299" width="39.1546" height="3.1963" fill="black"/>
<rect x="113.295" y="86.9261" width="35.1593" height="3.1963" fill="black"/>
<rect x="116.492" y="90.1225" width="31.963" height="3.1963" fill="black"/>
<rect x="119.688" y="93.3188" width="28.7667" height="3.1963" fill="black"/>
<rect x="135.669" y="62.954" width="11.9861" height="3.1963" fill="black"/>
<rect x="132.473" y="59.7577" width="15.1824" height="3.1963" fill="black"/>
<path d="M38.417 110.162C43.327 110.162 43.1484 112.19 43.1484 120.301H47.2038C49.9075 120.301 51.9352 123.005 51.9352 123.005C51.9352 123.005 53.287 120.301 57.3425 120.301H66.1293C70.8607 120.301 72.2125 123.005 72.2125 123.005C72.2125 123.005 74.3646 120.301 76.2679 120.301H87.7584C90.1919 120.301 92.4898 123.005 92.4898 123.005C92.4898 123.005 94.6418 120.301 96.5452 120.301H106.008C111.415 120.301 112.091 123.005 112.091 123.005C112.091 118.274 111.376 113.152 115.471 111.514C118.85 110.162 122.23 110.838 124.257 111.514C126.285 112.19 126.961 113.542 126.961 113.542C126.961 113.542 127.637 111.514 131.017 110.838C134.33 110.176 137.314 110.607 139.127 111.514C141.831 112.866 141.831 115.57 141.831 119.625H151.97C156.025 119.625 156.701 123.005 156.701 123.005C156.701 123.005 156.701 119.625 161.432 119.625C164.812 119.626 171.571 119.625 171.571 119.625C172.247 115.57 172.594 110.162 175.627 110.162L178.965 110.163C181.379 110.163 183.954 110.163 185.765 110.162C188.469 110.162 189.145 114.894 189.821 119.625H193.876C197.932 119.625 199.283 123.005 199.283 123.005C199.283 123.005 200.635 119.625 204.691 119.625H216.181C220.355 119.625 220.912 123.681 220.912 130.44V146.662C220.912 155.448 218.885 156.8 214.153 156.8L210.26 156.8C208.522 156.8 206.895 156.8 204.691 156.8C201.987 156.8 199.283 154.502 199.283 154.502C199.283 154.502 197.256 156.8 194.552 156.8C192.44 156.8 192.608 156.8 190.497 156.8C187.793 156.8 185.765 154.502 185.765 154.502C185.765 154.502 184.233 156.8 182.386 156.8C180.538 156.8 181.53 156.801 179.682 156.8C177.654 156.8 176.302 154.502 176.302 154.502C176.302 154.502 174.951 156.8 172.923 156.8C170.283 156.801 166.776 156.8 164.136 156.8C160.442 156.8 159.405 154.502 159.405 154.502C159.405 154.502 158.053 156.8 153.997 156.8H144.535C141.155 156.8 139.127 154.502 139.127 154.502C139.127 154.502 137.776 156.8 135.072 156.8C132.368 156.8 132.716 156.801 130.341 156.8C127.965 156.8 126.961 154.502 126.961 154.502C126.961 154.502 125.545 156.8 122.906 156.8C120.266 156.8 119.462 156.801 116.822 156.8C114.119 156.8 112.091 154.502 112.091 154.502C112.091 154.502 109.387 156.8 106.684 156.8C102.724 156.801 100.505 156.801 96.5452 156.8C93.8416 156.8 90.462 154.502 90.462 154.502C90.462 154.502 87.7584 156.8 85.7307 156.8C81.2434 156.801 79.1395 156.8 74.9161 156.8C72.8884 156.8 70.8607 154.502 70.8607 154.502C70.8607 154.502 68.8329 156.8 67.4811 156.8C63.5217 156.8 61.3019 156.801 57.3425 156.8C55.3148 156.8 53.287 154.502 53.287 154.502C53.287 154.502 52.6111 156.8 49.2316 156.8C46.856 156.8 46.1999 156.8 43.8243 156.8C41.1207 156.8 40.4448 154.502 40.4448 154.502C40.4448 154.502 38.417 156.8 33.6857 156.8C27.6025 156.8 24.2229 156.8 16.7879 156.8C11.3807 156.801 4.62159 151.393 4.62158 142.606V127.06C4.62159 119.625 7.87289 110.163 15.4361 110.163C18.8157 110.163 20.1675 110.163 22.8711 110.163C27.6025 110.162 28.2784 112.19 28.2784 112.19C28.2784 112.19 28.9543 110.162 31.6579 110.162H38.417Z" fill="black"/>
<path d="M29.3216 140.505C29.475 141.118 29.5517 141.885 29.5517 142.805C29.5517 143.687 29.475 144.454 29.3216 145.106H27.0211C27.1745 145.719 27.2511 146.486 27.2511 147.406C27.2511 148.288 27.1745 149.055 27.0211 149.707H15.5183C15.365 149.055 15.2883 148.288 15.2883 147.406C15.2883 146.486 15.365 145.719 15.5183 145.106H13.2178C13.0644 144.454 12.9877 143.687 12.9877 142.805C12.9877 141.885 13.0644 141.118 13.2178 140.505H10.9172C10.7639 139.853 10.6872 139.086 10.6872 138.204C10.6872 137.284 10.7639 136.517 10.9172 135.903C10.7639 135.252 10.6872 134.485 10.6872 133.603C10.6872 132.683 10.7639 131.916 10.9172 131.302C10.7639 130.651 10.6872 129.884 10.6872 129.002C10.6872 128.082 10.7639 127.315 10.9172 126.701H13.2178C13.0644 126.049 12.9877 125.283 12.9877 124.401C12.9877 123.481 13.0644 122.714 13.2178 122.1H15.5183C15.365 121.448 15.2883 120.682 15.2883 119.8C15.2883 118.879 15.365 118.113 15.5183 117.499H27.0211C27.1745 118.113 27.2511 118.879 27.2511 119.8C27.2511 120.682 27.1745 121.448 27.0211 122.1H29.3216C29.475 122.714 29.5517 123.481 29.5517 124.401C29.5517 125.283 29.475 126.049 29.3216 126.701H24.7205C24.5672 126.049 24.4905 125.283 24.4905 124.401C24.4905 123.481 24.5672 122.714 24.7205 122.1H17.8189C17.9723 122.714 18.0489 123.481 18.0489 124.401C18.0489 125.283 17.9723 126.049 17.8189 126.701H15.5183C15.6717 127.315 15.7484 128.082 15.7484 129.002C15.7484 129.884 15.6717 130.651 15.5183 131.302C15.6717 131.916 15.7484 132.683 15.7484 133.603C15.7484 134.485 15.6717 135.252 15.5183 135.903C15.6717 136.517 15.7484 137.284 15.7484 138.204C15.7484 139.086 15.6717 139.853 15.5183 140.505H17.8189C17.9723 141.118 18.0489 141.885 18.0489 142.805C18.0489 143.687 17.9723 144.454 17.8189 145.106H24.7205C24.5672 144.454 24.4905 143.687 24.4905 142.805C24.4905 141.885 24.5672 141.118 24.7205 140.505H29.3216ZM35.9007 129.002C35.9007 129.884 35.824 130.651 35.6706 131.302H37.396C37.5494 131.916 37.6261 132.683 37.6261 133.603C37.6261 134.485 37.5494 135.252 37.396 135.903H35.6706C35.824 136.517 35.9007 137.284 35.9007 138.204C35.9007 139.086 35.824 139.853 35.6706 140.505C35.824 141.118 35.9007 141.885 35.9007 142.805C35.9007 143.687 35.824 144.454 35.6706 145.106C35.824 145.719 35.9007 146.486 35.9007 147.406C35.9007 148.288 35.824 149.055 35.6706 149.707H31.0695C30.9161 149.055 30.8395 148.288 30.8395 147.406C30.8395 146.486 30.9161 145.719 31.0695 145.106C30.9161 144.454 30.8395 143.687 30.8395 142.805C30.8395 141.885 30.9161 141.118 31.0695 140.505C30.9161 139.853 30.8395 139.086 30.8395 138.204C30.8395 137.284 30.9161 136.517 31.0695 135.903C30.9161 135.252 30.8395 134.485 30.8395 133.603C30.8395 132.683 30.9161 131.916 31.0695 131.302C30.9161 130.651 30.8395 129.884 30.8395 129.002C30.8395 128.082 30.9161 127.315 31.0695 126.701C30.9161 126.049 30.8395 125.283 30.8395 124.401C30.8395 123.481 30.9161 122.714 31.0695 122.1C30.9161 121.448 30.8395 120.682 30.8395 119.8C30.8395 118.879 30.9161 118.113 31.0695 117.499H35.6706C35.824 118.113 35.9007 118.879 35.9007 119.8C35.9007 120.682 35.824 121.448 35.6706 122.1C35.824 122.714 35.9007 123.481 35.9007 124.401C35.9007 125.283 35.824 126.049 35.6706 126.701C35.824 127.315 35.9007 128.082 35.9007 129.002ZM49.4739 135.903C49.6273 136.517 49.704 137.284 49.704 138.204C49.704 139.086 49.6273 139.853 49.4739 140.505C49.6273 141.118 49.704 141.885 49.704 142.805C49.704 143.687 49.6273 144.454 49.4739 145.106C49.6273 145.719 49.704 146.486 49.704 147.406C49.704 148.288 49.6273 149.055 49.4739 149.707H44.8728C44.7194 149.055 44.6428 148.288 44.6428 147.406C44.6428 146.486 44.7194 145.719 44.8728 145.106C44.7194 144.454 44.6428 143.687 44.6428 142.805C44.6428 141.885 44.7194 141.118 44.8728 140.505C44.7194 139.853 44.6428 139.086 44.6428 138.204C44.6428 137.284 44.7194 136.517 44.8728 135.903C44.7194 135.252 44.6428 134.485 44.6428 133.603C44.6428 132.683 44.7194 131.916 44.8728 131.302H37.396C37.2427 130.651 37.166 129.884 37.166 129.002C37.166 128.082 37.2427 127.315 37.396 126.701H46.5982C46.7516 127.315 46.8283 128.082 46.8283 129.002C46.8283 129.884 46.7516 130.651 46.5982 131.302H49.4739C49.6273 131.916 49.704 132.683 49.704 133.603C49.704 134.485 49.6273 135.252 49.4739 135.903ZM69.8562 133.603C69.8562 134.485 69.7795 135.252 69.6262 135.903C69.7795 136.517 69.8562 137.284 69.8562 138.204C69.8562 139.086 69.7795 139.853 69.6262 140.505H57.5483C57.7017 141.118 57.7783 141.885 57.7783 142.805C57.7783 143.687 57.7017 144.454 57.5483 145.106H67.3256C67.479 145.719 67.5557 146.486 67.5557 147.406C67.5557 148.288 67.479 149.055 67.3256 149.707H55.8229C55.6695 149.055 55.5928 148.288 55.5928 147.406C55.5928 146.486 55.6695 145.719 55.8229 145.106H52.9472C52.7938 144.454 52.7171 143.687 52.7171 142.805C52.7171 141.885 52.7938 141.118 52.9472 140.505H51.2218C51.0684 139.853 50.9917 139.086 50.9917 138.204C50.9917 137.284 51.0684 136.517 51.2218 135.903H52.9472C52.7938 135.252 52.7171 134.485 52.7171 133.603C52.7171 132.683 52.7938 131.916 52.9472 131.302H55.8229C55.6695 130.651 55.5928 129.884 55.5928 129.002C55.5928 128.082 55.6695 127.315 55.8229 126.701H67.3256C67.479 127.315 67.5557 128.082 67.5557 129.002C67.5557 129.884 67.479 130.651 67.3256 131.302H69.6262C69.7795 131.916 69.8562 132.683 69.8562 133.603ZM65.0251 135.903C64.8717 135.252 64.795 134.485 64.795 133.603C64.795 132.683 64.8717 131.916 65.0251 131.302H57.5483C57.7017 131.916 57.7783 132.683 57.7783 133.603C57.7783 134.485 57.7017 135.252 57.5483 135.903H65.0251ZM88.8582 142.805C88.8582 143.687 88.7815 144.454 88.6282 145.106H86.3276C86.481 145.719 86.5577 146.486 86.5577 147.406C86.5577 148.288 86.481 149.055 86.3276 149.707H73.6746C73.5212 149.055 73.4445 148.288 73.4445 147.406C73.4445 146.486 73.5212 145.719 73.6746 145.106H84.0271C83.8737 144.454 83.797 143.687 83.797 142.805C83.797 141.885 83.8737 141.118 84.0271 140.505H74.8249C74.6715 139.853 74.5948 139.086 74.5948 138.204C74.5948 137.284 74.6715 136.517 74.8249 135.903H72.5243C72.3709 135.252 72.2943 134.485 72.2943 133.603C72.2943 132.683 72.3709 131.916 72.5243 131.302H74.8249C74.6715 130.651 74.5948 129.884 74.5948 129.002C74.5948 128.082 74.6715 127.315 74.8249 126.701H87.4779C87.6313 127.315 87.7079 128.082 87.7079 129.002C87.7079 129.884 87.6313 130.651 87.4779 131.302H77.1254C77.2788 131.916 77.3555 132.683 77.3555 133.603C77.3555 134.485 77.2788 135.252 77.1254 135.903H86.3276C86.481 136.517 86.5577 137.284 86.5577 138.204C86.5577 139.086 86.481 139.853 86.3276 140.505H88.6282C88.7815 141.118 88.8582 141.885 88.8582 142.805ZM109.01 142.805C109.01 143.687 108.934 144.454 108.78 145.106H106.48C106.633 145.719 106.71 146.486 106.71 147.406C106.71 148.288 106.633 149.055 106.48 149.707H93.8269C93.6735 149.055 93.5968 148.288 93.5968 147.406C93.5968 146.486 93.6735 145.719 93.8269 145.106H104.179C104.026 144.454 103.949 143.687 103.949 142.805C103.949 141.885 104.026 141.118 104.179 140.505H94.9771C94.8238 139.853 94.7471 139.086 94.7471 138.204C94.7471 137.284 94.8238 136.517 94.9771 135.903H92.6766C92.5232 135.252 92.4465 134.485 92.4465 133.603C92.4465 132.683 92.5232 131.916 92.6766 131.302H94.9771C94.8238 130.651 94.7471 129.884 94.7471 129.002C94.7471 128.082 94.8238 127.315 94.9771 126.701H107.63C107.784 127.315 107.86 128.082 107.86 129.002C107.86 129.884 107.784 130.651 107.63 131.302H97.2777C97.4311 131.916 97.5077 132.683 97.5077 133.603C97.5077 134.485 97.4311 135.252 97.2777 135.903H106.48C106.633 136.517 106.71 137.284 106.71 138.204C106.71 139.086 106.633 139.853 106.48 140.505H108.78C108.934 141.118 109.01 141.885 109.01 142.805Z" fill="white"/>
<path d="M136.398 122.1C136.551 122.714 136.628 123.481 136.628 124.401C136.628 125.283 136.551 126.049 136.398 126.701C136.551 127.315 136.628 128.082 136.628 129.002C136.628 129.884 136.551 130.651 136.398 131.302C136.551 131.916 136.628 132.683 136.628 133.603C136.628 134.485 136.551 135.252 136.398 135.903C136.551 136.517 136.628 137.284 136.628 138.204C136.628 139.086 136.551 139.853 136.398 140.505C136.551 141.118 136.628 141.885 136.628 142.805C136.628 143.687 136.551 144.454 136.398 145.106C136.551 145.719 136.628 146.486 136.628 147.406C136.628 148.288 136.551 149.055 136.398 149.707H131.797C131.643 149.055 131.567 148.288 131.567 147.406C131.567 146.486 131.643 145.719 131.797 145.106C131.643 144.454 131.567 143.687 131.567 142.805C131.567 141.885 131.643 141.118 131.797 140.505C131.643 139.853 131.567 139.086 131.567 138.204C131.567 137.284 131.643 136.517 131.797 135.903H122.595C122.748 136.517 122.825 137.284 122.825 138.204C122.825 139.086 122.748 139.853 122.595 140.505C122.748 141.118 122.825 141.885 122.825 142.805C122.825 143.687 122.748 144.454 122.595 145.106C122.748 145.719 122.825 146.486 122.825 147.406C122.825 148.288 122.748 149.055 122.595 149.707H117.993C117.84 149.055 117.763 148.288 117.763 147.406C117.763 146.486 117.84 145.719 117.993 145.106C117.84 144.454 117.763 143.687 117.763 142.805C117.763 141.885 117.84 141.118 117.993 140.505C117.84 139.853 117.763 139.086 117.763 138.204C117.763 137.284 117.84 136.517 117.993 135.903C117.84 135.252 117.763 134.485 117.763 133.603C117.763 132.683 117.84 131.916 117.993 131.302C117.84 130.651 117.763 129.884 117.763 129.002C117.763 128.082 117.84 127.315 117.993 126.701C117.84 126.049 117.763 125.283 117.763 124.401C117.763 123.481 117.84 122.714 117.993 122.1C117.84 121.448 117.763 120.682 117.763 119.8C117.763 118.879 117.84 118.113 117.993 117.499H122.595C122.748 118.113 122.825 118.879 122.825 119.8C122.825 120.682 122.748 121.448 122.595 122.1C122.748 122.714 122.825 123.481 122.825 124.401C122.825 125.283 122.748 126.049 122.595 126.701C122.748 127.315 122.825 128.082 122.825 129.002C122.825 129.884 122.748 130.651 122.595 131.302H131.797C131.643 130.651 131.567 129.884 131.567 129.002C131.567 128.082 131.643 127.315 131.797 126.701C131.643 126.049 131.567 125.283 131.567 124.401C131.567 123.481 131.643 122.714 131.797 122.1C131.643 121.448 131.567 120.682 131.567 119.8C131.567 118.879 131.643 118.113 131.797 117.499H136.398C136.551 118.113 136.628 118.879 136.628 119.8C136.628 120.682 136.551 121.448 136.398 122.1ZM156.55 145.106C156.703 145.719 156.78 146.486 156.78 147.406C156.78 148.288 156.703 149.055 156.55 149.707H151.949C151.796 149.055 151.719 148.288 151.719 147.406C151.719 146.486 151.796 145.719 151.949 145.106H149.648C149.495 144.454 149.418 143.687 149.418 142.805C149.418 141.885 149.495 141.118 149.648 140.505H142.747C142.9 141.118 142.977 141.885 142.977 142.805C142.977 143.687 142.9 144.454 142.747 145.106H149.648C149.802 145.719 149.878 146.486 149.878 147.406C149.878 148.288 149.802 149.055 149.648 149.707H140.446C140.293 149.055 140.216 148.288 140.216 147.406C140.216 146.486 140.293 145.719 140.446 145.106H138.146C137.992 144.454 137.916 143.687 137.916 142.805C137.916 141.885 137.992 141.118 138.146 140.505H140.446C140.293 139.853 140.216 139.086 140.216 138.204C140.216 137.284 140.293 136.517 140.446 135.903H149.648C149.495 135.252 149.418 134.485 149.418 133.603C149.418 132.683 149.495 131.916 149.648 131.302H141.597C141.443 130.651 141.366 129.884 141.366 129.002C141.366 128.082 141.443 127.315 141.597 126.701H151.949C152.102 127.315 152.179 128.082 152.179 129.002C152.179 129.884 152.102 130.651 151.949 131.302H154.25C154.403 131.916 154.48 132.683 154.48 133.603C154.48 134.485 154.403 135.252 154.25 135.903C154.403 136.517 154.48 137.284 154.48 138.204C154.48 139.086 154.403 139.853 154.25 140.505C154.403 141.118 154.48 141.885 154.48 142.805C154.48 143.687 154.403 144.454 154.25 145.106H156.55ZM176.702 140.505C176.856 141.118 176.932 141.885 176.932 142.805C176.932 143.687 176.856 144.454 176.702 145.106H174.402C174.555 145.719 174.632 146.486 174.632 147.406C174.632 148.288 174.555 149.055 174.402 149.707H162.899C162.746 149.055 162.669 148.288 162.669 147.406C162.669 146.486 162.746 145.719 162.899 145.106H160.598C160.445 144.454 160.368 143.687 160.368 142.805C160.368 141.885 160.445 141.118 160.598 140.505H158.298C158.145 139.853 158.068 139.086 158.068 138.204C158.068 137.284 158.145 136.517 158.298 135.903H160.598C160.445 135.252 160.368 134.485 160.368 133.603C160.368 132.683 160.445 131.916 160.598 131.302H162.899C162.746 130.651 162.669 129.884 162.669 129.002C162.669 128.082 162.746 127.315 162.899 126.701H174.402C174.555 127.315 174.632 128.082 174.632 129.002C174.632 129.884 174.555 130.651 174.402 131.302H176.702C176.856 131.916 176.932 132.683 176.932 133.603C176.932 134.485 176.856 135.252 176.702 135.903H172.101C171.948 135.252 171.871 134.485 171.871 133.603C171.871 132.683 171.948 131.916 172.101 131.302H165.2C165.353 131.916 165.43 132.683 165.43 133.603C165.43 134.485 165.353 135.252 165.2 135.903H162.899C163.052 136.517 163.129 137.284 163.129 138.204C163.129 139.086 163.052 139.853 162.899 140.505H165.2C165.353 141.118 165.43 141.885 165.43 142.805C165.43 143.687 165.353 144.454 165.2 145.106H172.101C171.948 144.454 171.871 143.687 171.871 142.805C171.871 141.885 171.948 141.118 172.101 140.505H176.702ZM196.855 145.106C197.008 145.719 197.085 146.486 197.085 147.406C197.085 148.288 197.008 149.055 196.855 149.707H188.803C188.649 149.055 188.573 148.288 188.573 147.406C188.573 146.486 188.649 145.719 188.803 145.106H186.502C186.349 144.454 186.272 143.687 186.272 142.805C186.272 141.885 186.349 141.118 186.502 140.505H183.051C183.205 141.118 183.281 141.885 183.281 142.805C183.281 143.687 183.205 144.454 183.051 145.106C183.205 145.719 183.281 146.486 183.281 147.406C183.281 148.288 183.205 149.055 183.051 149.707H178.45C178.297 149.055 178.22 148.288 178.22 147.406C178.22 146.486 178.297 145.719 178.45 145.106C178.297 144.454 178.22 143.687 178.22 142.805C178.22 141.885 178.297 141.118 178.45 140.505C178.297 139.853 178.22 139.086 178.22 138.204C178.22 137.284 178.297 136.517 178.45 135.903C178.297 135.252 178.22 134.485 178.22 133.603C178.22 132.683 178.297 131.916 178.45 131.302C178.297 130.651 178.22 129.884 178.22 129.002C178.22 128.082 178.297 127.315 178.45 126.701C178.297 126.049 178.22 125.283 178.22 124.401C178.22 123.481 178.297 122.714 178.45 122.1C178.297 121.448 178.22 120.682 178.22 119.8C178.22 118.879 178.297 118.113 178.45 117.499H183.051C183.205 118.113 183.281 118.879 183.281 119.8C183.281 120.682 183.205 121.448 183.051 122.1C183.205 122.714 183.281 123.481 183.281 124.401C183.281 125.283 183.205 126.049 183.051 126.701C183.205 127.315 183.281 128.082 183.281 129.002C183.281 129.884 183.205 130.651 183.051 131.302C183.205 131.916 183.281 132.683 183.281 133.603C183.281 134.485 183.205 135.252 183.051 135.903H186.502C186.349 135.252 186.272 134.485 186.272 133.603C186.272 132.683 186.349 131.916 186.502 131.302H188.803C188.649 130.651 188.573 129.884 188.573 129.002C188.573 128.082 188.649 127.315 188.803 126.701H195.704C195.858 127.315 195.934 128.082 195.934 129.002C195.934 129.884 195.858 130.651 195.704 131.302H191.103C191.257 131.916 191.333 132.683 191.333 133.603C191.333 134.485 191.257 135.252 191.103 135.903H188.803C188.956 136.517 189.033 137.284 189.033 138.204C189.033 139.086 188.956 139.853 188.803 140.505H191.103C191.257 141.118 191.333 141.885 191.333 142.805C191.333 143.687 191.257 144.454 191.103 145.106H196.855ZM216.087 142.805C216.087 143.687 216.01 144.454 215.857 145.106H213.556C213.709 145.719 213.786 146.486 213.786 147.406C213.786 148.288 213.709 149.055 213.556 149.707H200.903C200.75 149.055 200.673 148.288 200.673 147.406C200.673 146.486 200.75 145.719 200.903 145.106H211.255C211.102 144.454 211.025 143.687 211.025 142.805C211.025 141.885 211.102 141.118 211.255 140.505H202.053C201.9 139.853 201.823 139.086 201.823 138.204C201.823 137.284 201.9 136.517 202.053 135.903H199.753C199.599 135.252 199.523 134.485 199.523 133.603C199.523 132.683 199.599 131.916 199.753 131.302H202.053C201.9 130.651 201.823 129.884 201.823 129.002C201.823 128.082 201.9 127.315 202.053 126.701H214.706C214.86 127.315 214.936 128.082 214.936 129.002C214.936 129.884 214.86 130.651 214.706 131.302H204.354C204.507 131.916 204.584 132.683 204.584 133.603C204.584 134.485 204.507 135.252 204.354 135.903H213.556C213.709 136.517 213.786 137.284 213.786 138.204C213.786 139.086 213.709 139.853 213.556 140.505H215.857C216.01 141.118 216.087 141.885 216.087 142.805Z" fill="white"/>
<path d="M295.377 6.2499C296.639 2.86885 299.724 0.542669 303.328 0.352952C311.5 -0.0772394 326.285 -0.480886 335.276 1.50545C349.396 4.62466 356.194 9.89722 364.292 21.0908C371.846 31.5335 375.488 41.232 375.898 59.5363C376.204 73.1995 375.47 85.0778 370.536 98.2733C367.857 105.437 357.952 119.201 352.804 126.104C350.803 128.788 349.907 132.134 350.344 135.452C350.786 138.806 351.404 143.579 352.094 149.153C352.675 153.842 355.405 165.187 355.205 170.705C355.17 171.663 355.077 172.823 354.953 174.053C354.382 179.699 349.476 183.814 343.801 183.814H259.55C252.98 183.814 247.733 178.343 248.006 171.779L249.08 146.022C249.469 136.664 253.729 127.887 260.84 121.79L280.147 105.236C280.147 105.236 260.562 100.483 264.914 88.5517C275.277 60.1421 290.006 20.6334 295.377 6.2499Z" fill="black"/>
<path d="M304.325 5.62286C306.132 5.62286 307.822 6.51804 308.837 8.01251L317.809 21.2186C318.362 22.174 319.587 22.4998 320.542 21.9461C321.497 21.3923 321.823 20.1682 321.27 19.2127L314.976 8.35333C314.281 7.15508 315.161 5.65939 316.545 5.70099C321.538 5.85249 328.246 6.18657 333.363 6.92365C334.439 7.07863 335.08 8.17966 334.727 9.20685L330.92 20.2498C330.452 21.2499 330.884 22.4406 331.884 22.909C332.884 23.3769 334.074 22.9459 334.542 21.9461L338.708 10.0604C339.043 9.10592 340.107 8.61868 341.023 9.04572C345.711 11.2298 349.848 14.4711 353.391 18.1658C354.149 18.9573 353.967 20.2356 353.04 20.8211L341.893 27.8611C340.901 28.347 340.491 29.5452 340.977 30.5369C341.462 31.5282 342.66 31.9383 343.651 31.4529L356.06 23.7264C356.835 23.2434 357.853 23.4254 358.392 24.1639C361.048 27.8086 363.192 31.5718 364.791 34.9969C365.24 35.9598 364.709 37.0825 363.69 37.3836L350.078 41.4051C349.019 41.7181 348.415 42.8304 348.728 43.8895C349.041 44.9485 350.153 45.5529 351.212 45.2401L365.378 41.0545C366.298 40.7827 367.274 41.2891 367.53 42.2137C367.92 43.6239 368.145 44.8321 368.197 45.7664C368.383 49.1112 368.71 52.4461 369.024 55.8299C369.121 56.8694 368.302 57.7645 367.258 57.7645H354.422C353.318 57.7645 352.422 58.6601 352.422 59.7645C352.422 60.8688 353.318 61.7644 354.422 61.7645H367.872C368.804 61.7645 369.58 62.4843 369.637 63.4149C369.845 66.8522 369.93 70.3814 369.745 74.0594C369.693 75.0883 368.76 75.8342 367.74 75.6854L354.711 73.783C353.618 73.6234 352.603 74.3798 352.443 75.4725C352.284 76.5652 353.04 77.5804 354.133 77.7401L367.479 79.6893C368.441 79.8298 369.115 80.7175 368.964 81.6776C368.754 83.0153 368.5 84.3754 368.197 85.7596C367.634 88.3314 366.814 90.8616 365.813 93.3358C365.409 94.3346 364.2 94.7061 363.284 94.1385L353.476 88.0594C352.537 87.4778 351.304 87.7673 350.723 88.7059C350.141 89.6446 350.43 90.8771 351.369 91.4588L361.873 97.9686C362.662 98.4576 362.943 99.4715 362.5 100.287C360.73 103.544 358.751 106.669 356.764 109.621C356.189 110.474 355.01 110.651 354.203 110.013L345.442 103.078C344.577 102.393 343.319 102.538 342.634 103.404C341.948 104.27 342.094 105.528 342.96 106.214L352.086 113.437C352.825 114.023 352.978 115.084 352.434 115.854C348.016 122.107 344.352 127.271 343.979 130.863C343.167 138.703 346.944 155.544 348.472 161.908C348.873 163.58 349.492 168.705 349.09 170.634C348.472 173.593 346.304 176.855 342.868 176.855H261.761C257.681 176.855 254.329 173.615 254.334 169.535C254.335 168.632 254.387 166.662 254.438 164.957C254.487 163.28 255.862 161.951 257.539 161.951H331.209C332.387 161.951 333.342 160.996 333.342 159.818C333.342 158.64 332.387 157.685 331.209 157.685H257.705C255.984 157.685 254.585 156.286 254.59 154.564C254.612 146.014 254.923 138.807 260.66 130.863C264.657 125.329 276.094 116.065 287.257 107.689C288.843 106.499 290.905 106.151 292.799 106.738L292.868 106.76C295.661 107.625 298.719 107.198 300.947 105.304C303.106 103.468 305.655 100.967 306.909 98.5076C307.476 97.3958 308.137 94.6359 308.506 92.9627C308.693 92.1135 309.266 91.3983 310.059 91.0399C311.028 90.6014 312.364 89.986 313.366 89.4832C317.002 87.6599 321.554 85.0297 324.517 81.9861C327.819 78.5943 330.226 75.4019 331.958 71.8152C333.689 68.23 334.694 64.3586 335.323 59.6746C335.608 57.5558 335.602 54.9096 335.536 52.8729C335.503 51.8378 335.453 50.9271 335.411 50.2752C335.39 49.949 335.371 49.6861 335.357 49.5037C335.351 49.4125 335.345 49.341 335.341 49.2918C335.339 49.2674 335.337 49.2484 335.336 49.2352C335.335 49.2287 335.335 49.2233 335.335 49.2195V49.2137L335.305 48.9969C335.105 47.9345 334.129 47.1744 333.029 47.2674C331.856 47.3669 330.985 48.3993 331.084 49.5731V49.575C331.084 49.5771 331.085 49.5809 331.085 49.5858C331.086 49.5959 331.087 49.6124 331.089 49.6336C331.092 49.6761 331.097 49.7404 331.104 49.824C331.116 49.9919 331.134 50.2391 331.153 50.5477C331.193 51.1657 331.24 52.0294 331.271 53.0096C331.336 55.0041 331.331 57.3566 331.096 59.1072C330.506 63.5002 329.593 66.9022 328.116 69.9608C326.64 73.0178 324.546 75.8405 321.46 79.0106C319.025 81.5116 315.023 83.8811 311.454 85.6707C310.598 86.1002 309.459 86.6255 308.52 87.0506C307.449 87.5349 306.211 87.3361 305.228 86.6932C304.814 86.4232 304.383 86.1751 304.021 86.0418L278.249 77.158C276.35 76.5033 275.369 74.406 276.086 72.5291L300.771 7.92657C301.278 6.51614 302.826 5.62288 304.325 5.62286ZM302.992 52.7254C299.924 52.7254 297.438 55.3123 297.438 58.5027C297.438 61.6931 299.925 64.2791 302.992 64.2791C306.06 64.279 308.547 61.693 308.547 58.5027C308.547 55.3124 306.06 52.7255 302.992 52.7254Z" fill="white"/>
<path d="M272.438 84.0326C272.969 82.4913 274.645 81.6688 276.189 82.1927L301.685 90.848C302.994 91.2926 303.827 92.5859 303.556 93.9418C303.32 95.1226 302.96 96.5161 302.443 97.5287C301.671 99.0422 300.103 100.582 298.774 101.711C297.403 102.877 295.52 103.14 293.801 102.607L274.553 96.642C271.361 95.6525 269.619 92.2182 270.708 89.058L272.438 84.0326ZM278.441 88.2748C277.03 88.2748 275.885 89.4646 275.885 90.932C275.885 92.3996 277.03 93.5892 278.441 93.5892C279.852 93.5891 280.996 92.3995 280.996 90.932C280.995 89.4647 279.852 88.2749 278.441 88.2748Z" fill="white"/>
<mask id="mask1_105_1271" style="mask-type:alpha" maskUnits="userSpaceOnUse" x="254" y="5" width="116" height="172">
<path d="M272.438 84.0326C272.969 82.4913 274.645 81.6688 276.189 82.1927L301.685 90.848C302.994 91.2926 303.827 92.5859 303.556 93.9418C303.32 95.1226 302.96 96.5161 302.443 97.5287C301.671 99.0422 300.103 100.582 298.774 101.711C297.403 102.877 295.52 103.14 293.801 102.607L274.553 96.642C271.361 95.6525 269.619 92.2182 270.708 89.058L272.438 84.0326ZM278.441 88.2748C277.03 88.2748 275.885 89.4646 275.885 90.932C275.885 92.3996 277.03 93.5892 278.441 93.5892C279.852 93.5891 280.996 92.3995 280.996 90.932C280.995 89.4647 279.852 88.2749 278.441 88.2748Z" fill="#D9D9D9"/>
<path d="M304.325 5.62286C306.132 5.62286 307.822 6.51804 308.837 8.01251L317.809 21.2186C318.362 22.174 319.587 22.4998 320.542 21.9461C321.497 21.3923 321.823 20.1682 321.27 19.2127L314.976 8.35333C314.281 7.15508 315.161 5.65939 316.545 5.70099C321.538 5.85249 328.246 6.18657 333.363 6.92365C334.439 7.07863 335.08 8.17966 334.727 9.20685L330.92 20.2498C330.452 21.2499 330.884 22.4406 331.884 22.909C332.884 23.3769 334.074 22.9459 334.542 21.9461L338.708 10.0604C339.043 9.10592 340.107 8.61868 341.023 9.04572C345.711 11.2298 349.848 14.4711 353.391 18.1658C354.149 18.9573 353.967 20.2356 353.04 20.8211L341.893 27.8611C340.901 28.347 340.491 29.5452 340.977 30.5369C341.462 31.5282 342.66 31.9383 343.651 31.4529L356.06 23.7264C356.835 23.2434 357.853 23.4254 358.392 24.1639C361.048 27.8086 363.192 31.5718 364.791 34.9969C365.24 35.9598 364.709 37.0825 363.69 37.3836L350.078 41.4051C349.019 41.7181 348.415 42.8304 348.728 43.8895C349.041 44.9485 350.153 45.5529 351.212 45.2401L365.378 41.0545C366.298 40.7827 367.274 41.2891 367.53 42.2137C367.92 43.6239 368.145 44.8321 368.197 45.7664C368.383 49.1112 368.71 52.4461 369.024 55.8299C369.121 56.8694 368.302 57.7645 367.258 57.7645H354.422C353.318 57.7645 352.422 58.6601 352.422 59.7645C352.422 60.8688 353.318 61.7644 354.422 61.7645H367.872C368.804 61.7645 369.58 62.4843 369.637 63.4149C369.845 66.8522 369.93 70.3814 369.745 74.0594C369.693 75.0883 368.76 75.8342 367.74 75.6854L354.711 73.783C353.618 73.6234 352.603 74.3798 352.443 75.4725C352.284 76.5652 353.04 77.5804 354.133 77.7401L367.479 79.6893C368.441 79.8298 369.115 80.7175 368.964 81.6776C368.754 83.0153 368.5 84.3754 368.197 85.7596C367.634 88.3314 366.814 90.8616 365.813 93.3358C365.409 94.3346 364.2 94.7061 363.284 94.1385L353.476 88.0594C352.537 87.4778 351.304 87.7673 350.723 88.7059C350.141 89.6446 350.43 90.8771 351.369 91.4588L361.873 97.9686C362.662 98.4576 362.943 99.4715 362.5 100.287C360.73 103.544 358.751 106.669 356.764 109.621C356.189 110.474 355.01 110.651 354.203 110.013L345.442 103.078C344.577 102.393 343.319 102.538 342.634 103.404C341.948 104.27 342.094 105.528 342.96 106.214L352.086 113.437C352.825 114.023 352.978 115.084 352.434 115.854C348.016 122.107 344.352 127.271 343.979 130.863C343.167 138.703 346.944 155.544 348.472 161.908C348.873 163.58 349.492 168.705 349.09 170.634C348.472 173.593 346.304 176.855 342.868 176.855H261.761C257.681 176.855 254.329 173.615 254.334 169.535C254.335 168.632 254.387 166.662 254.438 164.957C254.487 163.28 255.862 161.951 257.539 161.951H331.209C332.387 161.951 333.342 160.996 333.342 159.818C333.342 158.64 332.387 157.685 331.209 157.685H257.705C255.984 157.685 254.585 156.286 254.59 154.564C254.612 146.014 254.923 138.807 260.66 130.863C264.657 125.329 276.094 116.065 287.257 107.689C288.843 106.499 290.905 106.151 292.799 106.738L292.868 106.76C295.661 107.625 298.719 107.198 300.947 105.304C303.106 103.468 305.655 100.967 306.909 98.5076C307.476 97.3958 308.137 94.6359 308.506 92.9627C308.693 92.1135 309.266 91.3983 310.059 91.0399C311.028 90.6014 312.364 89.986 313.366 89.4832C317.002 87.6599 321.554 85.0297 324.517 81.9861C327.819 78.5943 330.226 75.4019 331.958 71.8152C333.689 68.23 334.694 64.3586 335.323 59.6746C335.608 57.5558 335.602 54.9096 335.536 52.8729C335.503 51.8378 335.453 50.9271 335.411 50.2752C335.39 49.949 335.371 49.6861 335.357 49.5037C335.351 49.4125 335.345 49.341 335.341 49.2918C335.339 49.2674 335.337 49.2484 335.336 49.2352C335.335 49.2287 335.335 49.2233 335.335 49.2195V49.2137L335.305 48.9969C335.105 47.9345 334.129 47.1744 333.029 47.2674C331.856 47.3669 330.985 48.3993 331.084 49.5731V49.575C331.084 49.5771 331.085 49.5809 331.085 49.5858C331.086 49.5959 331.087 49.6124 331.089 49.6336C331.092 49.6761 331.097 49.7404 331.104 49.824C331.116 49.9919 331.134 50.2391 331.153 50.5477C331.193 51.1657 331.24 52.0294 331.271 53.0096C331.336 55.0041 331.331 57.3566 331.096 59.1072C330.506 63.5002 329.593 66.9022 328.116 69.9608C326.64 73.0178 324.546 75.8405 321.46 79.0106C319.025 81.5116 315.023 83.8811 311.454 85.6707C310.598 86.1002 309.459 86.6255 308.52 87.0506C307.449 87.5349 306.211 87.3361 305.228 86.6932C304.814 86.4232 304.383 86.1751 304.021 86.0418L278.249 77.158C276.35 76.5033 275.369 74.406 276.086 72.5291L300.771 7.92657C301.278 6.51614 302.826 5.62288 304.325 5.62286ZM302.992 52.7254C299.924 52.7254 297.438 55.3123 297.438 58.5027C297.438 61.6931 299.925 64.2791 302.992 64.2791C306.06 64.279 308.547 61.693 308.547 58.5027C308.547 55.3124 306.06 52.7255 302.992 52.7254Z" fill="#D9D9D9"/>
</mask>
<g mask="url(#mask1_105_1271)">
<path d="M249.357 159.818H333.342V162.929C333.342 164.401 332.148 165.595 330.676 165.595H249.357V159.818Z" fill="#8EB6FF"/>
<path d="M304.046 15.8412C304.339 14.8116 305.665 14.5297 306.352 15.3513L309.954 19.662C310.598 20.4328 310.19 21.6119 309.208 21.8208L304.069 22.9131C303.086 23.1219 302.235 22.2104 302.509 21.2443L304.046 15.8412Z" fill="#8EB6FF"/>
<path d="M312.102 7.17816C312.102 7.17816 330.71 5.59685 341.208 10.9553C349.626 15.2525 353.205 20.5092 358.316 27.3968C363.426 34.2845 367.06 47.1711 367.425 53.6144C368.092 65.3902 368.545 65.8923 367.425 76.7215C366.391 86.7198 364.853 90.9489 360.537 99.3842C355.649 108.938 344.915 120.936 342.763 127.824C340.61 134.711 342.323 142.582 344.54 151.597C347.873 165.15 348.121 168.705 345.651 176.037C344.25 180.199 341.43 185.591 341.43 185.591" stroke="#8EB6FF" stroke-width="5.77676" stroke-linecap="round"/>
</g>
</svg>
